<svg width="1114" height="453" viewBox="0 0 1114 453" fill="none" xmlns="http://www.w3.org/2000/svg">
<g clip-path="url(#clip0_4639_23381)">
<mask id="mask0_4639_23381" style="mask-type:luminance" maskUnits="userSpaceOnUse" x="0" y="0" width="1114" height="453">
<path d="M1114 0H0V453H1114V0Z" fill="white"/>
</mask>
<g mask="url(#mask0_4639_23381)">
<path d="M559.174 135.866C557.262 131.802 554.154 128.216 550.329 125.825C546.504 123.434 541.961 122 537.419 122C532.877 122 528.334 123.195 524.509 125.825C520.684 128.216 517.576 131.802 515.664 135.866L422.905 334.772C420.753 339.314 419.797 344.574 420.036 349.594C420.275 354.615 421.948 359.635 424.817 363.939C427.686 368.242 431.272 371.828 435.814 374.219C440.357 376.609 445.377 378.044 450.398 378.044C456.135 378.044 461.873 376.37 466.894 373.262C471.675 370.154 475.739 365.612 478.13 360.353L485.541 344.574L511.839 287.914L525.944 258.031C527.139 255.64 528.813 253.727 530.964 252.293C533.116 250.859 535.746 250.141 538.136 250.141C540.766 250.141 543.157 250.859 545.308 252.293C547.46 253.727 549.134 255.64 550.329 258.031L564.195 287.914L590.493 344.574L597.904 360.592C600.294 365.851 604.359 370.154 609.14 373.262C613.921 376.37 619.659 378.044 625.397 378.044C630.417 378.044 635.677 376.848 639.98 374.219C644.522 371.828 648.348 368.242 650.977 363.939C653.607 359.635 655.281 354.615 655.759 349.594C655.998 344.574 655.041 339.314 652.89 334.772L559.174 135.866Z" fill="url(#paint0_linear_4639_23381)"/>
<path d="M827.408 293.413C825.974 291.261 825.496 288.632 825.735 286.002C825.974 283.372 827.169 280.981 828.843 279.069C841.035 265.442 848.925 248.707 851.793 230.777C854.662 212.847 852.272 194.438 844.86 177.703C837.449 160.968 825.257 146.863 809.956 137.061C794.656 127.26 776.965 122 758.556 122H632.566C625.155 122 617.744 124.869 612.485 130.367C607.225 135.627 604.117 142.799 604.117 150.449C604.117 157.86 607.225 165.272 612.485 170.531C617.744 175.791 624.916 178.899 632.566 178.899H758.795C768.597 178.899 777.921 182.485 785.093 189.418C792.026 196.112 796.09 205.435 796.329 215.237C796.329 220.019 795.612 225.039 793.7 229.581C791.787 234.124 789.157 238.188 785.81 241.774C782.463 245.121 778.16 247.99 773.857 249.902C769.314 251.815 764.533 252.771 759.752 252.532H696.159C688.748 252.532 681.337 255.64 676.077 260.899C670.818 266.159 667.71 273.331 667.71 280.981V282.416C667.71 289.827 670.579 297.238 676.077 302.498C681.337 307.757 688.509 310.865 696.159 310.865H747.081C750.906 310.865 754.731 311.821 758.078 313.734C761.425 315.647 764.294 318.515 766.206 321.862L789.635 362.265C792.504 367.286 796.807 371.589 801.828 374.458C806.848 377.326 812.586 379 818.563 379C824.54 379 830.277 377.566 835.298 374.458C840.318 371.589 844.621 367.286 847.49 362.265C850.359 357.245 852.033 351.268 851.793 345.53C851.793 339.553 850.12 333.816 847.251 328.795L827.408 293.413Z" fill="url(#paint1_linear_4639_23381)"/>
<path d="M1067.2 378.044C1058.35 378.044 1049.75 374.458 1043.53 368.242L973.722 298.673C972.287 297.238 970.375 296.043 968.462 295.087C966.549 294.369 964.398 293.891 962.246 293.891C960.095 293.891 957.943 294.369 956.03 295.087C954.118 295.804 952.205 296.999 950.771 298.673C947.902 301.781 946.229 305.845 946.229 309.909V344.096C946.229 352.941 942.643 361.548 936.427 367.764C930.211 373.98 921.604 377.566 912.759 377.566C903.913 377.566 895.307 373.98 889.091 367.764C882.875 361.548 879.289 352.941 879.289 344.096V293.891C879.289 282.177 883.831 271.18 891.96 263.051L946.468 208.304L1022.73 131.802C1025.84 128.694 1029.42 126.303 1033.49 124.63C1037.55 122.956 1041.86 122 1046.4 122C1053.09 122 1059.55 123.913 1065.05 127.499C1070.54 131.085 1074.85 136.344 1077.24 142.56C1079.87 148.776 1080.35 155.47 1079.15 161.925C1077.96 168.38 1074.61 174.356 1070.07 178.899L1018.67 230.299C1016.28 232.689 1015.08 235.797 1015.08 239.144C1015.08 242.491 1016.28 245.599 1018.67 247.99L1091.34 320.906C1096.13 325.687 1099.23 331.664 1100.43 338.119C1101.62 344.574 1101.15 351.507 1098.52 357.484C1095.89 363.7 1091.58 368.959 1086.08 372.545C1080.35 376.131 1073.89 378.044 1067.2 378.044Z" fill="url(#paint2_linear_4639_23381)"/>
<path d="M945.987 155.709C945.987 160.49 945.031 165.032 943.357 169.336C941.445 173.639 938.815 177.703 935.468 181.05L888.85 227.908C888.132 228.625 886.937 229.342 885.742 229.581C884.546 229.82 883.351 229.581 882.395 229.342C881.199 228.864 880.482 228.147 879.765 227.191C879.048 226.234 878.809 225.039 878.809 223.844V155.948C878.809 147.102 882.395 138.496 888.61 132.041C894.826 125.825 903.433 122.239 912.278 122.239C921.124 122.239 929.73 125.825 936.185 132.041C942.64 138.257 945.987 146.863 945.987 155.709Z" fill="url(#paint3_linear_4639_23381)"/>
<path d="M280.801 88.2L135.001 0L136.401 43.8C52.0006 57.2 1.70061 148.9 1.00061 175.5C0.900608 178.7 -3.09939 267.3 5.70061 285.9C9.40061 293.3 14.4006 299.9 20.3006 305.6L33.0006 294L65.3006 264.3C58.2006 258.5 51.9006 251.5 46.9006 243C46.7006 242.5 46.6006 242 46.4006 241.4C87.9006 202.4 136.201 192.2 152.601 189.8L154.201 204.3L161.901 222.2L288.601 106L280.801 88.2ZM4.90061 277.9C5.00061 280.2 5.20061 282 5.30061 283.4C5.00061 281.6 4.90061 279.7 4.90061 277.9Z" fill="url(#paint4_linear_4639_23381)"/>
<path d="M65.3004 264.3L33.0004 294C25.9004 286.4 20.3004 275.5 26.5004 265.7C33.1004 255.2 37.1004 250.3 46.2004 241.7C51.2004 250.8 57.8004 258.2 65.3004 264.3Z" fill="url(#paint5_linear_4639_23381)"/>
<path d="M280.801 88.2L154.201 204.3L152.601 189.8L150.601 171.2C150.601 171.2 89.5006 175.8 38.7006 223.5C26.6006 234.9 -0.299392 254.9 5.70061 285.8C-3.09939 267.3 0.900608 178.7 1.00061 175.5C1.70061 148.9 52.0006 57.2 136.401 43.8L135.001 0L280.801 88.2Z" fill="url(#paint6_linear_4639_23381)"/>
<path d="M12.7 337.5L158.5 425.7L157.1 381.9C241.4 368.5 291.8 276.8 292.5 250.2C292.6 247 296.6 158.4 287.8 139.8C284.1 132.4 279.1 125.8 273.2 120.1L260.6 131.7L228.3 161.4C235.4 167.2 241.7 174.2 246.7 182.7C246.9 183.2 247 183.7 247.2 184.3C205.7 223.3 157.4 233.5 141 235.9L139.4 221.4L131.7 203.5L5 319.6L12.7 337.5ZM288.7 147.7C288.6 145.4 288.4 143.6 288.3 142.2C288.5 144.1 288.6 145.9 288.7 147.7Z" fill="url(#paint7_linear_4639_23381)"/>
<path d="M228.301 161.3L260.601 131.6C267.701 139.2 273.301 150.1 267.101 159.9C260.501 170.4 256.501 175.3 247.401 183.9C242.301 174.9 235.801 167.5 228.301 161.3Z" fill="url(#paint8_linear_4639_23381)"/>
<path d="M12.7012 337.5L139.401 221.3L141.001 235.8L143.001 254.4C143.001 254.4 204.101 249.8 254.901 202.1C267.001 190.7 293.901 170.7 287.901 139.8C296.701 158.4 292.701 246.9 292.601 250.2C291.901 276.8 241.501 368.6 157.201 381.9L158.601 425.7L12.7012 337.5Z" fill="url(#paint9_linear_4639_23381)"/>
<path d="M267.101 414.7C233.501 414.7 204.001 404.4 188.101 389.2C180.301 381.7 175.701 373 175.601 363.7C175.201 335.6 215.501 312.8 265.601 312.8C315.701 312.8 356.701 335.7 357.101 363.8C357.201 373.1 353.001 381.8 345.301 389.3C329.901 404.6 300.701 414.8 267.101 414.7Z" fill="url(#paint10_linear_4639_23381)"/>
<path d="M267.502 442.9C217.402 442.9 176.402 420 176.002 391.9L175.602 363.7C175.702 373 180.302 381.7 188.102 389.2C204.002 404.4 233.502 414.7 267.102 414.7C300.702 414.7 329.902 404.5 345.302 389.3C352.902 381.8 357.202 373.1 357.102 363.8L357.502 392C357.902 420.2 317.602 443 267.502 442.9Z" fill="url(#paint11_linear_4639_23381)"/>
<path d="M331.801 369C329.402 349.6 300.501 334.1 265.301 334.1C231.901 334.1 204.501 348 200.401 366C200.301 365.3 200.302 364.5 200.202 363.7C199.902 343.2 229.202 326.6 265.702 326.7C302.202 326.7 332.001 343.4 332.301 363.9C332.402 365.6 332.201 367.3 331.801 369Z" fill="url(#paint12_linear_4639_23381)"/>
<path d="M266.9 400.9C242.5 400.9 221 393.4 209.4 382.3C204.3 377.4 201.2 371.9 200.4 366C204.6 347.9 231.9 334 265.3 334.1C300.4 334.1 329.4 349.6 331.8 369C330.7 373.8 327.9 378.4 323.8 382.4C312.6 393.5 291.3 400.9 266.9 400.9Z" fill="url(#paint13_linear_4639_23381)"/>
<path d="M281.401 376.2C247.801 376.2 218.301 365.9 202.401 350.7C194.601 343.2 190.001 334.5 189.901 325.2C189.501 297.1 229.801 274.3 279.901 274.3C330.001 274.3 371.001 297.2 371.401 325.3C371.501 334.6 367.301 343.3 359.601 350.8C344.101 366 315.001 376.2 281.401 376.2Z" fill="url(#paint14_linear_4639_23381)"/>
<path d="M281.8 404.4C231.7 404.4 190.7 381.5 190.3 353.4L189.9 325.2C190 334.5 194.6 343.2 202.4 350.7C218.3 365.9 247.8 376.2 281.4 376.2C315 376.2 344.2 366 359.6 350.8C367.2 343.3 371.5 334.6 371.4 325.3L371.8 353.5C372.2 381.6 331.9 404.4 281.8 404.4Z" fill="url(#paint15_linear_4639_23381)"/>
<path d="M346.1 330.4C343.7 311 314.8 295.5 279.6 295.5C246.2 295.5 218.8 309.4 214.7 327.4C214.6 326.7 214.6 325.9 214.5 325.1C214.2 304.6 243.5 288 280 288.1C316.5 288.1 346.3 304.8 346.6 325.3C346.7 327 346.5 328.7 346.1 330.4Z" fill="url(#paint16_linear_4639_23381)"/>
<path d="M281.201 362.3C256.801 362.3 235.301 354.8 223.701 343.7C218.601 338.8 215.501 333.3 214.701 327.4C218.901 309.3 246.201 295.4 279.601 295.5C314.701 295.5 343.701 311 346.101 330.4C345.001 335.2 342.201 339.8 338.101 343.8C326.901 354.9 305.601 362.3 281.201 362.3Z" fill="url(#paint17_linear_4639_23381)"/>
<path d="M258.401 340.7C224.801 340.7 195.301 330.4 179.401 315.2C171.601 307.7 167.001 299 166.901 289.7C166.501 261.6 206.801 238.8 256.901 238.8C307.001 238.8 348.001 261.7 348.401 289.8C348.501 299.1 344.301 307.8 336.601 315.3C321.201 330.5 292.001 340.7 258.401 340.7Z" fill="url(#paint18_linear_4639_23381)"/>
<path d="M258.9 368.9C208.8 368.9 167.8 346 167.4 317.9L167 289.7C167.1 299 171.7 307.7 179.5 315.2C195.4 330.4 224.9 340.7 258.5 340.7C292.1 340.7 321.3 330.5 336.7 315.3C344.3 307.8 348.6 299.1 348.5 289.8L348.9 318C349.3 346.2 309 368.9 258.9 368.9Z" fill="url(#paint19_linear_4639_23381)"/>
<path d="M323.2 294.9C320.8 275.5 291.9 260 256.7 260C223.3 260 195.9 273.9 191.8 291.9C191.7 291.2 191.7 290.4 191.6 289.6C191.3 269.1 220.6 252.5 257.1 252.6C293.6 252.6 323.4 269.3 323.7 289.8C323.7 291.5 323.6 293.2 323.2 294.9Z" fill="url(#paint20_linear_4639_23381)"/>
<path d="M258.201 326.8C233.801 326.8 212.301 319.3 200.701 308.2C195.601 303.3 192.501 297.8 191.701 291.9C195.901 273.8 223.201 259.9 256.601 260C291.701 260 320.701 275.5 323.101 294.9C322.001 299.7 319.201 304.3 315.101 308.3C303.901 319.4 282.701 326.8 258.201 326.8Z" fill="url(#paint21_linear_4639_23381)"/>
</g>
</g>
<defs>
<linearGradient id="paint0_linear_4639_23381" x1="537.899" y1="121.983" x2="537.899" y2="378.058" gradientUnits="userSpaceOnUse">
<stop stop-color="#CB28FF"/>
<stop offset="1" stop-color="#7409C0"/>
</linearGradient>
<linearGradient id="paint1_linear_4639_23381" x1="728.881" y1="122.031" x2="728.881" y2="378.242" gradientUnits="userSpaceOnUse">
<stop stop-color="#CB28FF"/>
<stop offset="1" stop-color="#7409C0"/>
</linearGradient>
<linearGradient id="paint2_linear_4639_23381" x1="989.818" y1="122.031" x2="989.818" y2="378.132" gradientUnits="userSpaceOnUse">
<stop stop-color="#CB28FF"/>
<stop offset="1" stop-color="#7409C0"/>
</linearGradient>
<linearGradient id="paint3_linear_4639_23381" x1="912.431" y1="122.031" x2="912.431" y2="229.615" gradientUnits="userSpaceOnUse">
<stop stop-color="#CB28FF"/>
<stop offset="1" stop-color="#7409C0"/>
</linearGradient>
<linearGradient id="paint4_linear_4639_23381" x1="-14.78" y1="286.415" x2="118.034" y2="149.594" gradientUnits="userSpaceOnUse">
<stop stop-color="#CB28FF"/>
<stop offset="1" stop-color="#7409C0"/>
</linearGradient>
<linearGradient id="paint5_linear_4639_23381" x1="56.4339" y1="274.313" x2="25.2328" y2="262.366" gradientUnits="userSpaceOnUse">
<stop stop-color="#CB28FF"/>
<stop offset="1" stop-color="#7409C0"/>
</linearGradient>
<linearGradient id="paint6_linear_4639_23381" x1="224.035" y1="72.1261" x2="-4.9201" y2="177.635" gradientUnits="userSpaceOnUse">
<stop stop-color="#CB28FF"/>
<stop offset="1" stop-color="#7409C0"/>
</linearGradient>
<linearGradient id="paint7_linear_4639_23381" x1="317.847" y1="169.86" x2="70.956" y2="376.658" gradientUnits="userSpaceOnUse">
<stop stop-color="#CB28FF"/>
<stop offset="1" stop-color="#7409C0"/>
</linearGradient>
<linearGradient id="paint8_linear_4639_23381" x1="237.096" y1="151.353" x2="268.297" y2="163.3" gradientUnits="userSpaceOnUse">
<stop stop-color="#CB28FF"/>
<stop offset="1" stop-color="#7409C0"/>
</linearGradient>
<linearGradient id="paint9_linear_4639_23381" x1="66.9987" y1="349.662" x2="281.182" y2="257.869" gradientUnits="userSpaceOnUse">
<stop stop-color="#CB28FF"/>
<stop offset="1" stop-color="#7409C0"/>
</linearGradient>
<linearGradient id="paint10_linear_4639_23381" x1="181.351" y1="367.514" x2="350.232" y2="360.092" gradientUnits="userSpaceOnUse">
<stop stop-color="#F9C232"/>
<stop offset="1" stop-color="#F38D11"/>
</linearGradient>
<linearGradient id="paint11_linear_4639_23381" x1="347.226" y1="403.121" x2="184.896" y2="403.367" gradientUnits="userSpaceOnUse">
<stop stop-color="#F9C232"/>
<stop offset="1" stop-color="#F38D11"/>
</linearGradient>
<linearGradient id="paint12_linear_4639_23381" x1="369.283" y1="336.693" x2="221.026" y2="358.734" gradientUnits="userSpaceOnUse">
<stop stop-color="#F9C232"/>
<stop offset="1" stop-color="#F38D11"/>
</linearGradient>
<linearGradient id="paint13_linear_4639_23381" x1="237.062" y1="410.713" x2="303.284" y2="312.191" gradientUnits="userSpaceOnUse">
<stop stop-color="#F9C232"/>
<stop offset="1" stop-color="#F38D11"/>
</linearGradient>
<linearGradient id="paint14_linear_4639_23381" x1="195.626" y1="328.932" x2="364.508" y2="321.509" gradientUnits="userSpaceOnUse">
<stop stop-color="#F9C232"/>
<stop offset="1" stop-color="#F38D11"/>
</linearGradient>
<linearGradient id="paint15_linear_4639_23381" x1="361.5" y1="364.539" x2="199.169" y2="364.785" gradientUnits="userSpaceOnUse">
<stop stop-color="#F9C232"/>
<stop offset="1" stop-color="#F38D11"/>
</linearGradient>
<linearGradient id="paint16_linear_4639_23381" x1="383.558" y1="298.111" x2="235.299" y2="320.151" gradientUnits="userSpaceOnUse">
<stop stop-color="#F9C232"/>
<stop offset="1" stop-color="#F38D11"/>
</linearGradient>
<linearGradient id="paint17_linear_4639_23381" x1="251.338" y1="372.131" x2="317.56" y2="273.609" gradientUnits="userSpaceOnUse">
<stop stop-color="#F9C232"/>
<stop offset="1" stop-color="#F38D11"/>
</linearGradient>
<linearGradient id="paint18_linear_4639_23381" x1="172.682" y1="293.444" x2="341.564" y2="286.021" gradientUnits="userSpaceOnUse">
<stop stop-color="#F9C232"/>
<stop offset="1" stop-color="#F38D11"/>
</linearGradient>
<linearGradient id="paint19_linear_4639_23381" x1="338.556" y1="329.05" x2="176.225" y2="329.296" gradientUnits="userSpaceOnUse">
<stop stop-color="#F9C232"/>
<stop offset="1" stop-color="#F38D11"/>
</linearGradient>
<linearGradient id="paint20_linear_4639_23381" x1="360.614" y1="262.623" x2="212.355" y2="284.663" gradientUnits="userSpaceOnUse">
<stop stop-color="#F9C232"/>
<stop offset="1" stop-color="#F38D11"/>
</linearGradient>
<linearGradient id="paint21_linear_4639_23381" x1="228.394" y1="336.642" x2="294.616" y2="238.12" gradientUnits="userSpaceOnUse">
<stop stop-color="#F9C232"/>
<stop offset="1" stop-color="#F38D11"/>
</linearGradient>
<clipPath id="clip0_4639_23381">
<rect width="1114" height="453" fill="white"/>
</clipPath>
</defs>
</svg>
