<svg width="24" height="24" viewBox="0 0 24 24" fill="none" xmlns="http://www.w3.org/2000/svg">
<g clip-path="url(#clip0_896_9862)">
<path d="M12 24C18.6274 24 24 18.6274 24 12C24 5.37258 18.6274 0 12 0C5.37258 0 0 5.37258 0 12C0 18.6274 5.37258 24 12 24Z" fill="#F0F0F0"/>
<path d="M6.7832 16.1729L7.82669 23.2527C9.12662 23.7351 10.5327 23.999 12.0006 23.999C17.1601 23.999 21.5587 20.7425 23.2541 16.1729H6.7832Z" fill="black"/>
<path d="M6.7832 7.8266L7.82669 0.746785C9.12662 0.264394 10.5327 0.000488281 12.0006 0.000488281C17.1601 0.000488281 21.5587 3.25699 23.2541 7.8266H6.7832Z" fill="#6DA544"/>
<path d="M0 12.0002C0 17.1598 3.25655 21.5583 7.82611 23.2538V0.746582C3.25655 2.4421 0 6.84061 0 12.0002Z" fill="#A2001D"/>
</g>
<defs>
<clipPath id="clip0_896_9862">
<rect width="24" height="24" fill="white"/>
</clipPath>
</defs>
</svg>
