<svg width="24" height="24" viewBox="0 0 24 24" fill="none" xmlns="http://www.w3.org/2000/svg">
<g clip-path="url(#clip0_896_7894)">
<path d="M0 12C0 5.37262 5.37262 0 12 0C18.6274 0 24 5.37262 24 12C23.4783 12 12 13.5652 12 13.5652L0 12Z" fill="#D80027"/>
<path d="M24 12.0005C24 18.6279 18.6274 24.0005 12 24.0005C5.37262 24.0005 0 18.6279 0 12.0005" fill="black"/>
<path d="M10.3555 9.54365L11.3727 10.2819L10.9851 11.4776L12.0016 10.7381L13.019 11.4764L12.6298 10.2811L13.6463 9.54168L12.3893 9.54243L12.0001 8.34717L11.6124 9.54286L10.3555 9.54365Z" fill="#FFDA44"/>
<path d="M15.0004 6.80332C14.0548 6.25736 13.0209 5.99969 12.0004 6.00147V7.56635C12.7547 7.56499 13.5188 7.7553 14.2178 8.1589C16.3355 9.38158 17.0637 12.0992 15.841 14.2169C14.6183 16.3346 11.9007 17.0628 9.78297 15.8402C9.166 15.484 8.66795 15.0003 8.30083 14.4422L6.99414 15.3048C7.49088 16.06 8.16569 16.7137 9.00039 17.1956C11.8656 18.8498 15.5423 17.8646 17.1965 14.9995C18.8507 12.1343 17.8656 8.45754 15.0004 6.80332Z" fill="#FFDA44"/>
<path d="M8.53996 10.9561C8.12512 11.7144 8.40365 12.6656 9.16199 13.0804L14.2455 15.8582C13.8998 16.4902 14.0834 17.2593 14.7154 17.605L16.0886 18.3562C16.7205 18.702 17.5132 18.4698 17.8589 17.8379L18.6101 16.4647L8.53996 10.9561Z" fill="#FFDA44"/>
</g>
<defs>
<clipPath id="clip0_896_7894">
<rect width="24" height="24" fill="white"/>
</clipPath>
</defs>
</svg>
