<svg width="24" height="24" viewBox="0 0 24 24" fill="none" xmlns="http://www.w3.org/2000/svg">
<g clip-path="url(#clip0_896_7927)">
<path d="M12 24C18.6274 24 24 18.6274 24 12C24 5.37258 18.6274 0 12 0C5.37258 0 0 5.37258 0 12C0 18.6274 5.37258 24 12 24Z" fill="#F0F0F0"/>
<path d="M12.0007 -0.000976562C7.24316 -0.000976562 3.13241 2.7677 1.19141 6.78165H22.8099C20.869 2.7677 16.7582 -0.000976562 12.0007 -0.000976562Z" fill="#338AF3"/>
<path d="M12.0007 23.9989C16.7582 23.9989 20.869 21.2303 22.81 17.2163H1.19141C3.13241 21.2303 7.24316 23.9989 12.0007 23.9989Z" fill="#338AF3"/>
<path d="M15.5873 12.0003L14.1218 12.6897L14.9022 14.109L13.3108 13.8045L13.1092 15.4122L12.0007 14.2298L10.8922 15.4122L10.6906 13.8045L9.09919 14.1089L9.87956 12.6896L8.41406 12.0003L9.87961 11.3109L9.09919 9.8916L10.6905 10.196L10.8923 8.58838L12.0007 9.77075L13.1092 8.58838L13.3108 10.196L14.9023 9.8916L14.1218 11.3109L15.5873 12.0003Z" fill="#FFDA44"/>
</g>
<defs>
<clipPath id="clip0_896_7927">
<rect width="24" height="24" fill="white"/>
</clipPath>
</defs>
</svg>
