<svg width="24" height="24" viewBox="0 0 24 24" fill="none" xmlns="http://www.w3.org/2000/svg">
<g clip-path="url(#clip0_896_7948)">
<path d="M24 12C24 18.6274 18.6274 24 12 24C5.37262 24 0 18.6274 0 12C0 12.0028 12 0.00135937 12 0C18.6274 0 24 5.37262 24 12Z" fill="#0052B4"/>
<path d="M11.9688 12.0004H12.0009C12.0009 11.9895 12.0009 11.9791 12.0009 11.9683C11.9902 11.979 11.9795 11.9897 11.9688 12.0004Z" fill="#F0F0F0"/>
<path d="M12 6.26183C12 4.15035 12 2.76674 12 0.000976562H11.998C5.3715 0.00205469 0 5.37416 0 12.0009H6.26086V8.47537L9.78642 12.0009H11.9679C11.9787 11.9902 11.9894 11.9796 12 11.9688C12 11.1604 12 10.439 12 9.78744L8.47443 6.26183H12Z" fill="#F0F0F0"/>
<path d="M6.07027 1.56592C4.19344 2.63462 2.63316 4.1949 1.56445 6.07173V12.0007H4.69491V4.69642V4.69637H11.9993C11.9993 3.70904 11.9993 2.76845 11.9993 1.56592H6.07027Z" fill="#D80027"/>
<path d="M11.9989 10.5251L7.73544 6.26174H6.25977C6.25977 6.26169 6.25977 6.26174 6.25977 6.26174L11.9988 12.0008H11.9989C11.9989 12.0008 11.9989 10.9834 11.9989 10.5251Z" fill="#D80027"/>
<path d="M7.23827 14.0864L7.89686 15.4635L9.38406 15.1198L8.71806 16.4933L9.91403 17.4417L8.42495 17.7774L8.42913 19.3038L7.23827 18.3488L6.04745 19.3038L6.05163 17.7774L4.5625 17.4417L5.75852 16.4933L5.09242 15.1198L6.57972 15.4635L7.23827 14.0864Z" fill="#F0F0F0"/>
<path d="M17.9687 16.6953L18.298 17.3839L19.0416 17.212L18.7086 17.8987L19.3066 18.373L18.5621 18.5408L18.5641 19.304L17.9687 18.8265L17.3733 19.304L17.3754 18.5408L16.6309 18.373L17.2288 17.8987L16.8958 17.212L17.6394 17.3839L17.9687 16.6953Z" fill="#F0F0F0"/>
<path d="M14.9043 9.3916L15.2336 10.0802L15.9772 9.90826L15.6442 10.595L16.2422 11.0693L15.4977 11.2371L15.4997 12.0003L14.9043 11.5228L14.3089 12.0003L14.3109 11.2371L13.5664 11.0693L14.1644 10.595L13.8314 9.90826L14.575 10.0802L14.9043 9.3916Z" fill="#F0F0F0"/>
<path d="M17.9687 5.21777L18.298 5.90637L19.0416 5.73448L18.7086 6.42124L19.3066 6.89543L18.5621 7.06329L18.5641 7.82651L17.9687 7.34899L17.3733 7.82651L17.3754 7.06329L16.6309 6.89543L17.2288 6.42124L16.8958 5.73448L17.6394 5.90637L17.9687 5.21777Z" fill="#F0F0F0"/>
<path d="M20.6426 8.34814L20.9718 9.03674L21.7155 8.8648L21.3825 9.55157L21.9804 10.0258L21.2359 10.1937L21.2379 10.9568L20.6426 10.4794L20.0472 10.9568L20.0492 10.1937L19.3047 10.0258L19.9027 9.55157L19.5697 8.8648L20.3132 9.03674L20.6426 8.34814Z" fill="#F0F0F0"/>
<path d="M18.73 12.0005L18.989 12.7976H19.8272L19.1491 13.2903L19.4082 14.0875L18.73 13.5948L18.0519 14.0875L18.3109 13.2903L17.6328 12.7976H18.471L18.73 12.0005Z" fill="#F0F0F0"/>
</g>
<defs>
<clipPath id="clip0_896_7948">
<rect width="24" height="24" fill="white"/>
</clipPath>
</defs>
</svg>
