<svg width="24" height="24" viewBox="0 0 24 24" fill="none" xmlns="http://www.w3.org/2000/svg">
<g clip-path="url(#clip0_896_7955)">
<path d="M24 11.9999C24 10.532 23.736 9.1259 23.2536 7.82596L12 7.3042L0.746391 7.82592C0.264047 9.1259 0 10.532 0 11.9999C0 13.4677 0.264047 14.8738 0.746391 16.1737L12 16.6955L23.2536 16.1738C23.736 14.8738 24 13.4677 24 11.9999Z" fill="#D80027"/>
<path d="M11.9997 23.9995C17.1593 23.9995 21.5578 20.743 23.2533 16.1733H0.746094C2.44161 20.743 6.84013 23.9995 11.9997 23.9995Z" fill="#6DA544"/>
<path d="M0.746094 7.82513H23.2534C21.5578 3.25552 17.1593 -0.000976562 11.9997 -0.000976562C6.84013 -0.000976562 2.44161 3.25552 0.746094 7.82513Z" fill="#338AF3"/>
<path d="M12.2614 15.3909C10.3885 15.3909 8.87012 13.8726 8.87012 11.9996C8.87012 10.1267 10.3885 8.60831 12.2614 8.60831C12.8454 8.60831 13.3949 8.75597 13.8746 9.01593C13.122 8.27995 12.0928 7.82568 10.9571 7.82568C8.65187 7.82568 6.7832 9.6944 6.7832 11.9996C6.7832 14.3047 8.65192 16.1735 10.9571 16.1735C12.0929 16.1735 13.1221 15.7192 13.8746 14.9832C13.3949 15.2433 12.8454 15.3909 12.2614 15.3909Z" fill="#F0F0F0"/>
<path d="M14.8713 9.65088L15.3205 10.9142L16.5314 10.3385L15.9558 11.5495L17.2191 11.9987L15.9558 12.448L16.5314 13.6589L15.3205 13.0832L14.8713 14.3465L14.4221 13.0832L13.2111 13.6589L13.7868 12.448L12.5234 11.9987L13.7868 11.5495L13.2111 10.3385L14.4221 10.9142L14.8713 9.65088Z" fill="#F0F0F0"/>
</g>
<defs>
<clipPath id="clip0_896_7955">
<rect width="24" height="24" fill="white"/>
</clipPath>
</defs>
</svg>
