<svg width="24" height="24" viewBox="0 0 24 24" fill="none" xmlns="http://www.w3.org/2000/svg">
<g clip-path="url(#clip0_896_7978)">
<path d="M17.2165 1.19072C15.6389 0.427875 13.869 0 11.9991 0C10.1293 0 8.35939 0.427875 6.78177 1.19072L5.73828 12L6.78177 22.8093C8.35939 23.5721 10.1293 24 11.9991 24C13.869 24 15.6389 23.5721 17.2165 22.8093L18.26 12L17.2165 1.19072Z" fill="#FFDA44"/>
<path d="M6.78262 1.19141C2.76872 3.13231 0 7.24273 0 12.0003C0 16.7578 2.76872 20.8682 6.78262 22.8091V1.19141Z" fill="#0052B4"/>
<path d="M17.2168 1.19189V22.8096C21.2307 20.8687 23.9994 16.7582 23.9994 12.0008C23.9994 7.24327 21.2307 3.1328 17.2168 1.19189Z" fill="#0052B4"/>
<path d="M15.6528 7.30325L16.3528 7.65322L15.6528 7.30325L14.9527 6.95328C14.9105 7.0377 13.9965 8.89738 13.8472 11.738H12.7832V7.30325L12.0006 6.25977L11.218 7.30325V11.738H10.154C10.0046 8.89738 9.09064 7.0377 9.04841 6.95328L7.64844 7.65327C7.65809 7.67248 8.60933 9.60866 8.60933 12.5207V13.3033H11.218V17.7381H12.7832V13.3033H15.3919V12.5206C15.3919 11.0151 15.6524 9.77366 15.871 8.99731C16.1092 8.15075 16.3512 7.65636 16.3536 7.65144L15.6528 7.30325Z" fill="black"/>
</g>
<defs>
<clipPath id="clip0_896_7978">
<rect width="24" height="24" fill="white"/>
</clipPath>
</defs>
</svg>
