<svg width="24" height="24" viewBox="0 0 24 24" fill="none" xmlns="http://www.w3.org/2000/svg">
<g clip-path="url(#clip0_896_8251)">
<path d="M12 24C18.6274 24 24 18.6274 24 12C24 5.37258 18.6274 0 12 0C5.37258 0 0 5.37258 0 12C0 18.6274 5.37258 24 12 24Z" fill="#F0F0F0"/>
<path d="M19.3067 2.47992C15.0105 -0.825982 8.98955 -0.825982 4.69336 2.47988L12 9.78656L19.3067 2.47992Z" fill="#D80027"/>
<path d="M12 14.214L4.69336 21.5206C8.98955 24.8265 15.0105 24.8265 19.3067 21.5206L12 14.2139L12 14.214Z" fill="#D80027"/>
<path d="M9.78607 12L2.47943 4.69336C-0.826477 8.98955 -0.826477 15.0105 2.47943 19.3067L9.78607 12Z" fill="#6DA544"/>
<path d="M14.2129 12L21.5195 19.3067C24.8254 15.0105 24.8254 8.98955 21.5195 4.69336L14.2129 12Z" fill="#6DA544"/>
<path d="M12.0006 17.2179C14.8821 17.2179 17.218 14.882 17.218 12.0006C17.218 9.1191 14.8821 6.7832 12.0006 6.7832C9.1191 6.7832 6.7832 9.1191 6.7832 12.0006C6.7832 14.882 9.1191 17.2179 12.0006 17.2179Z" fill="#F0F0F0"/>
<path d="M12 8.34814L12.4518 9.13077H13.3555L12.9037 9.91335L13.3555 10.696H12.4518L12 11.4786L11.5482 10.696H10.6445L11.0964 9.91335L10.6445 9.13077H11.5482L12 8.34814Z" fill="#D80027"/>
<path d="M9.70319 12.001L10.155 12.7836H11.0587L10.6068 13.5662L11.0587 14.3488H10.155L9.70319 15.1314L9.25131 14.3488H8.34766L8.79948 13.5662L8.34766 12.7836H9.25131L9.70319 12.001Z" fill="#D80027"/>
<path d="M14.2969 12.001L14.7488 12.7836H15.6524L15.2006 13.5662L15.6524 14.3488H14.7488L14.2969 15.1314L13.8451 14.3488H12.9414L13.3932 13.5662L12.9414 12.7836H13.8451L14.2969 12.001Z" fill="#D80027"/>
</g>
<defs>
<clipPath id="clip0_896_8251">
<rect width="24" height="24" fill="white"/>
</clipPath>
</defs>
</svg>
