<svg width="24" height="24" viewBox="0 0 24 24" fill="none" xmlns="http://www.w3.org/2000/svg">
<g clip-path="url(#clip0_896_8018)">
<path d="M24 12C24 18.6274 18.6274 24 12 24C5.37262 24 0 18.6274 0 12C0 12.0029 12 0.0013125 12 0C18.6274 0 24 5.37262 24 12Z" fill="#D80027"/>
<path d="M11.9981 5.73877V9.7861L7.82422 5.73877H11.9981Z" fill="#0052B4"/>
<path d="M6.26 11.9994H9.78552L6.26 7.30371L5.73828 10.9559L6.26 11.9994Z" fill="#0052B4"/>
<path d="M11.9688 12.0014H12.0009C12.0009 11.9906 12.0009 11.9801 12.0009 11.9692C11.9902 11.98 11.9795 11.9907 11.9688 12.0014Z" fill="#F0F0F0"/>
<path d="M12 6.26135C12 4.14986 12 2.76635 12 0.000488281H11.998C5.37145 0.00161328 0 5.37372 0 12.0005H6.26086V8.47497L9.78638 12.0005H11.9679C11.9786 11.9898 11.9893 11.9791 12 11.9684C12 11.1599 12 10.4386 12 9.78696L8.47444 6.26135H12Z" fill="#F0F0F0"/>
<path d="M6.07027 1.56543C4.19344 2.63413 2.63311 4.19442 1.56445 6.07125V12.522H4.69491V4.69598V4.69589H12.521C12.521 3.70856 12.521 2.76796 12.521 1.56543H6.07027Z" fill="#D80027"/>
<path d="M12.476 11.0002L7.73539 6.25977H6.25977V6.25986L12.4758 12.4759H12.4759C12.476 12.476 12.476 11.4584 12.476 11.0002Z" fill="#D80027"/>
<path d="M13.5645 6.25977V11.9989C13.5645 14.7945 20.8688 14.7945 20.8688 11.9989V6.25977H13.5645Z" fill="#F3F3F3"/>
<path d="M13.5645 12.0005V12.0005C13.5645 14.7961 17.2166 15.6527 17.2166 15.6527C17.2166 15.6527 20.8688 14.7961 20.8688 12.0005V12.0005H13.5645Z" fill="#6DA544"/>
<path d="M17.2171 9.70459L15.5215 10.435V12.0002L17.2171 13.0437L18.9128 12.0002V10.435L17.2171 9.70459Z" fill="#A2001D"/>
<path d="M18.9128 8.86865H15.5215V10.4339H18.9128V8.86865Z" fill="#338AF3"/>
</g>
<defs>
<clipPath id="clip0_896_8018">
<rect width="24" height="24" fill="white"/>
</clipPath>
</defs>
</svg>
