<svg width="24" height="24" viewBox="0 0 24 24" fill="none" xmlns="http://www.w3.org/2000/svg">
<g clip-path="url(#clip0_896_8227)">
<path d="M12.0002 23.9975C18.6266 23.9975 23.9984 18.6257 23.9984 11.9992C23.9984 5.37277 18.6266 0.000976562 12.0002 0.000976562C5.37375 0.000976562 0.00195312 5.37277 0.00195312 11.9992C0.00195312 18.6257 5.37375 23.9975 12.0002 23.9975Z" fill="#F0F0F0"/>
<path d="M1.6094 6.00146C1.06784 6.93936 0.668365 7.91991 0.402344 8.9187L20.468 20.5037C21.2 19.7739 21.8495 18.9376 22.3909 17.9997L1.6094 6.00146Z" fill="black"/>
<path d="M17.9983 1.6092C13.1974 -1.16253 7.27791 -0.238742 3.53125 3.4969L23.5969 15.0818C24.9588 9.9694 22.799 4.38098 17.9983 1.6092Z" fill="#FFDA44"/>
<path d="M6.0003 22.3897C10.8011 25.1614 16.7207 24.2376 20.4673 20.502L0.401573 8.91699C-0.960222 14.0295 1.19945 19.6179 6.0003 22.3897Z" fill="#FFDA44"/>
<path d="M15.3903 10.6965C15.3903 12.5691 13.8722 14.0873 11.9995 14.0873C10.1268 14.0873 8.60867 12.5692 8.60867 10.6965C8.60867 10.1126 8.75629 9.56318 9.01626 9.0835C8.28045 9.836 7.82617 10.865 7.82617 12.0006C7.82617 14.3055 9.6946 16.174 11.9995 16.174C14.3044 16.174 16.1728 14.3055 16.1728 12.0006C16.1728 10.865 15.7186 9.836 14.9827 9.0835C15.2427 9.56327 15.3903 10.1126 15.3903 10.6965Z" fill="#D80027"/>
<path d="M12.7818 6.78369H11.2168V14.6086H12.7818V6.78369Z" fill="#D80027"/>
<path d="M14.6072 8.34863H9.39062C9.39062 8.70878 9.70437 9.00072 10.0645 9.00072H10.0427C10.0427 9.36087 10.3347 9.65282 10.6948 9.65282C10.6948 10.013 10.9868 10.3049 11.3469 10.3049H12.651C13.0112 10.3049 13.3031 10.013 13.3031 9.65282C13.6633 9.65282 13.9552 9.36087 13.9552 9.00072H13.9335C14.2935 9.00068 14.6072 8.70883 14.6072 8.34863Z" fill="#D80027"/>
<path d="M15.6509 15.1299H8.34766V16.6949H15.6509V15.1299Z" fill="#D80027"/>
<path d="M16.6944 15.6514H13.5645V17.2164H16.6944V15.6514Z" fill="#D80027"/>
<path d="M10.4346 15.6514H7.30469V17.2164H10.4346V15.6514Z" fill="#D80027"/>
</g>
<defs>
<clipPath id="clip0_896_8227">
<rect width="24" height="24" fill="white"/>
</clipPath>
</defs>
</svg>
