<svg width="24" height="24" viewBox="0 0 24 24" fill="none" xmlns="http://www.w3.org/2000/svg">
<g clip-path="url(#clip0_896_8035)">
<path d="M3.51471 20.4853C-1.17157 15.799 -1.17157 8.20106 3.51471 3.51473C8.20099 -1.1716 15.799 -1.17155 20.4853 3.51473C20.4853 3.51637 23.6713 14.2987 18.985 18.985C14.2988 23.6714 3.51799 20.4886 3.51471 20.4853Z" fill="#FFDA44"/>
<path d="M3.51562 20.4847C8.20191 25.171 15.7999 25.171 20.4862 20.4847C25.1726 15.7984 25.1725 8.20048 20.4862 3.51416L3.51562 20.4847Z" fill="#FF9811"/>
<path d="M18.7877 6.78179V4.69482H14.7875L14.4819 5.0004C13.3949 6.08739 13.5778 7.35545 13.7113 8.28132C13.8351 9.14021 13.85 9.46923 13.5305 9.78868C13.2111 10.108 12.882 10.0932 12.0232 9.96934C11.0974 9.83589 9.82934 9.65303 8.74236 10.74C7.65542 11.8269 7.83837 13.0949 7.97197 14.0207C8.09586 14.8795 8.11077 15.2085 7.79145 15.5278C7.47209 15.847 7.14298 15.8322 6.28437 15.7083C5.94959 15.66 5.60342 15.6101 5.23386 15.606L5.21094 17.6928C5.44222 17.6954 5.70655 17.7335 5.98639 17.7739C6.3177 17.8217 6.6927 17.8758 7.08767 17.8758C7.49698 17.8758 7.92758 17.8175 8.35283 17.6339V19.3036H11.4833V17.7384H9.91808V16.6949H10.9616V15.1297H10.1276C10.1671 14.6234 10.0976 14.1385 10.0376 13.7228C9.91367 12.864 9.89877 12.535 10.2181 12.2158C10.5375 11.8964 10.8665 11.9112 11.7254 12.035C12.4001 12.1323 13.2564 12.2552 14.092 11.8944V13.5645H17.2225V11.9993H15.6573V10.9558H16.7008V9.39057H15.8668C15.9064 8.88418 15.8369 8.39936 15.7769 7.98353C15.6904 7.38348 15.657 7.04204 15.7538 6.78184H18.7877V6.78179Z" fill="#F0F0F0"/>
</g>
<defs>
<clipPath id="clip0_896_8035">
<rect width="24" height="24" fill="white"/>
</clipPath>
</defs>
</svg>
