<svg width="24" height="24" viewBox="0 0 24 24" fill="none" xmlns="http://www.w3.org/2000/svg">
<g clip-path="url(#clip0_896_8159)">
<path d="M0.566625 8.34789C0.199031 9.49956 -4.68667e-05 10.7264 8.276e-09 12.0001C-4.68667e-05 13.2736 0.199031 14.5005 0.566672 15.6522L12 16.174L23.4333 15.6522C23.8008 14.5005 24 13.2736 24 12.0001C24 10.7265 23.8009 9.49956 23.4333 8.34789L12 7.82617L0.566625 8.34789Z" fill="#F0F0F0"/>
<path d="M24 12.0006C24 11.2887 23.9377 10.5914 23.8187 9.91357H0.181313C0.0623437 10.5914 0 11.2886 0 12.0005C0 12.7125 0.0623906 13.4097 0.181313 14.0875H23.8187C23.9376 13.4096 24 12.7124 24 12.0006Z" fill="black"/>
<path d="M11.9997 23.9997C17.3536 23.9997 21.8878 20.4933 23.433 15.6519H0.566406C2.11164 20.4933 6.64591 23.9996 11.9997 23.9997Z" fill="#338AF3"/>
<path d="M11.9998 -0.000488279C6.64595 -0.000488279 2.11173 3.5059 0.566406 8.34725L23.433 8.34729C21.8878 3.5059 17.3536 -0.000582029 11.9998 -0.000488279Z" fill="#338AF3"/>
</g>
<defs>
<clipPath id="clip0_896_8159">
<rect width="24" height="24" fill="white"/>
</clipPath>
</defs>
</svg>
