<svg width="24" height="24" viewBox="0 0 24 24" fill="none" xmlns="http://www.w3.org/2000/svg">
<g clip-path="url(#clip0_896_8002)">
<path d="M24 12.0002C24 7.88174 21.9249 4.24832 18.7635 2.0872L12 1.56543L5.23655 2.08715C2.07516 4.24832 0 7.88179 0 12.0002C0 16.1188 2.07516 19.7521 5.23655 21.9133L12 22.435L18.7635 21.9133C21.9249 19.7521 24 16.1188 24 12.0002Z" fill="#0052B4"/>
<path d="M18.7632 2.08697C16.8374 0.770438 14.5087 0 11.9998 0C9.49089 0 7.16219 0.770438 5.23633 2.08697H18.7632Z" fill="#A2001D"/>
<path d="M5.23633 21.9131C7.16214 23.2296 9.49089 24.0001 11.9998 24.0001C14.5087 24.0001 16.8374 23.2296 18.7632 21.9131H5.23633Z" fill="#A2001D"/>
<path d="M12.0009 17.7381C15.1705 17.7381 17.74 15.1686 17.74 11.9989C17.74 8.82927 15.1705 6.25977 12.0009 6.25977C8.83122 6.25977 6.26172 8.82927 6.26172 11.9989C6.26172 15.1686 8.83122 17.7381 12.0009 17.7381Z" fill="#F0F0F0"/>
<path d="M12.0003 16.6955C14.5937 16.6955 16.696 14.5932 16.696 11.9999C16.696 9.40652 14.5937 7.3042 12.0003 7.3042C9.40701 7.3042 7.30469 9.40652 7.30469 11.9999C7.30469 14.5932 9.40701 16.6955 12.0003 16.6955Z" fill="#6DA544"/>
<path d="M11.9996 15.1296C13.7285 15.1296 15.13 13.728 15.13 11.9991C15.13 10.2702 13.7285 8.86865 11.9996 8.86865C10.2707 8.86865 8.86914 10.2702 8.86914 11.9991C8.86914 13.728 10.2707 15.1296 11.9996 15.1296Z" fill="#F0F0F0"/>
<path d="M12.0003 11.2173L10.3047 11.9999V13.3043L12.0003 14.3477L13.696 13.3043V11.9999L12.0003 11.2173Z" fill="#0052B4"/>
<path d="M13.696 10.436H10.3047V12.0012H13.696V10.436Z" fill="#FFDA44"/>
</g>
<defs>
<clipPath id="clip0_896_8002">
<rect width="24" height="24" fill="white"/>
</clipPath>
</defs>
</svg>
