<svg width="24" height="24" viewBox="0 0 24 24" fill="none" xmlns="http://www.w3.org/2000/svg">
<g clip-path="url(#clip0_896_8278)">
<path d="M12 24C18.6274 24 24 18.6274 24 12C24 5.37258 18.6274 0 12 0C5.37258 0 0 5.37258 0 12C0 18.6274 5.37258 24 12 24Z" fill="#F0F0F0"/>
<path d="M23.9994 12.0007C23.9994 7.24316 21.2307 3.13241 17.2168 1.19141V22.8099C21.2307 20.869 23.9994 16.7582 23.9994 12.0007Z" fill="#D80027"/>
<path d="M0 12.0002C0 16.7577 2.76867 20.8685 6.78262 22.8095V1.19092C2.76867 3.13192 0 7.24267 0 12.0002Z" fill="#D80027"/>
<path d="M14.087 13.566L16.174 12.5225L15.1305 12.0008V10.9573L13.0435 12.0008L14.087 9.91384H13.0435L12.0001 8.34863L10.9566 9.91384H9.91309L10.9566 12.0008L8.86961 10.9573V12.0008L7.82617 12.5225L9.91309 13.566L9.39138 14.6095H11.4783V16.1747H12.5218V14.6095H14.6088L14.087 13.566Z" fill="#D80027"/>
</g>
<defs>
<clipPath id="clip0_896_8278">
<rect width="24" height="24" fill="white"/>
</clipPath>
</defs>
</svg>
