<svg width="24" height="24" viewBox="0 0 24 24" fill="none" xmlns="http://www.w3.org/2000/svg">
<g clip-path="url(#clip0_896_8460)">
<path d="M22.667 6.49861C22.1125 5.42428 21.3857 4.4159 20.4852 3.51534C19.5845 2.61473 18.5761 1.88793 17.5018 1.3335L9.04798 9.0494L1.33203 17.5033C1.88652 18.5776 2.61331 19.586 3.51387 20.4866C4.41444 21.3871 5.42286 22.1139 6.49714 22.6684L14.951 14.9525L22.667 6.49861Z" fill="#FFDA44"/>
<path d="M3.51553 20.4853C4.01892 20.9887 4.55606 21.4377 5.11945 21.833L21.8343 5.11799C21.4391 4.5546 20.9902 4.01746 20.4868 3.51407C19.9833 3.01068 19.4462 2.56175 18.8828 2.1665L2.16797 18.8814C2.56317 19.4447 3.01209 19.9819 3.51553 20.4853Z" fill="#D80027"/>
<path d="M3.51441 3.51431C-0.271541 7.30026 -0.998338 12.9861 1.33257 17.5023L17.5024 1.33251C12.9862 -0.998347 7.30032 -0.271457 3.51441 3.51431Z" fill="#338AF3"/>
<path d="M20.486 20.485C24.2719 16.6991 24.9986 11.0132 22.6679 6.49707L6.49805 22.6669C11.0142 24.9977 16.7001 24.271 20.486 20.485Z" fill="#338AF3"/>
<path d="M6.39547 3.65137L7.043 5.64435H9.1385L7.44322 6.87604L8.09075 8.86898L6.39547 7.63724L4.70009 8.86898L5.34772 6.87604L3.65234 5.64435H5.74784L6.39547 3.65137Z" fill="#FFDA44"/>
</g>
<defs>
<clipPath id="clip0_896_8460">
<rect width="24" height="24" fill="white"/>
</clipPath>
</defs>
</svg>
