<svg width="24" height="24" viewBox="0 0 24 24" fill="none" xmlns="http://www.w3.org/2000/svg">
<g clip-path="url(#clip0_896_8431)">
<path d="M12 23.9999C18.6273 23.9999 23.9999 18.6273 23.9999 12C23.9999 5.37256 18.6273 0 12 0C5.37256 0 0 5.37256 0 12C0 18.6273 5.37256 23.9999 12 23.9999Z" fill="#F0F0F0"/>
<path d="M11.999 0C8.07308 0 4.58773 1.88545 2.39844 4.8H21.5994C19.4102 1.88541 15.9248 0 11.999 0Z" fill="#0052B4"/>
<path d="M11.999 23.9997C15.9248 23.9997 19.4102 22.1143 21.5995 19.1997H2.39844C4.58769 22.1143 8.07308 23.9997 11.999 23.9997Z" fill="#0052B4"/>
<path d="M0 12.0001C0 12.8221 0.0828749 13.6247 0.240328 14.4001H23.7597C23.9172 13.6247 24 12.8221 24 12.0001C24 11.1781 23.9171 10.3756 23.7597 9.6001H0.240328C0.0828749 10.3756 0 11.1781 0 12.0001Z" fill="#0052B4"/>
<path d="M3.51468 3.51465C-1.17156 8.20088 -1.17156 15.7989 3.51468 20.4852C5.45122 18.5487 7.31366 16.6862 11.9999 12L3.51468 3.51465Z" fill="#D80027"/>
<path d="M4.85597 8.86963L5.63287 11.261H8.14753L6.1133 12.739L6.8902 15.1304L4.85597 13.6524L2.82164 15.1304L3.59873 12.739L1.56445 11.261H4.07892L4.85597 8.86963Z" fill="#F0F0F0"/>
</g>
<defs>
<clipPath id="clip0_896_8431">
<rect width="24" height="24" fill="white"/>
</clipPath>
</defs>
</svg>
