<svg width="24" height="24" viewBox="0 0 24 24" fill="none" xmlns="http://www.w3.org/2000/svg">
<g clip-path="url(#clip0_896_8513)">
<path d="M12 24C18.6274 24 24 18.6274 24 12C24 5.37258 18.6274 0 12 0C5.37258 0 0 5.37258 0 12C0 18.6274 5.37258 24 12 24Z" fill="#F0F0F0"/>
<path d="M0.414062 15.1309C1.52209 19.2419 4.75914 22.479 8.87027 23.5871V15.1309H0.414062Z" fill="#D80027"/>
<path d="M8.87022 0.413574C4.75914 1.52156 1.52205 4.75865 0.414062 8.86973H8.87027V0.413574H8.87022Z" fill="#0052B4"/>
<path d="M23.587 8.86973C22.479 4.75865 19.2419 1.52156 15.1309 0.413574V8.86978H23.587V8.86973Z" fill="#D80027"/>
<path d="M15.1309 23.5871C19.2419 22.479 22.479 19.242 23.5871 15.1309H15.1309V23.5871Z" fill="#0052B4"/>
<path d="M15.13 11.9996C15.13 13.7285 13.7285 15.13 11.9996 15.13C10.2707 15.13 8.86914 13.7285 8.86914 11.9996C8.86914 10.2707 11.9996 8.86914 11.9996 8.86914C11.9996 8.86914 15.13 10.2707 15.13 11.9996Z" fill="#496E2D"/>
<path d="M8.86914 11.9996C8.86914 10.2707 10.2707 8.86914 11.9996 8.86914C13.7285 8.86914 15.13 10.2707 15.13 11.9996" fill="#0052B4"/>
<path d="M10.2402 10.4346V12.3911C10.2402 13.3636 11.0286 14.1519 12.0011 14.1519C12.9736 14.1519 13.762 13.3636 13.762 12.3911V10.4346H10.2402Z" fill="#D80027"/>
</g>
<defs>
<clipPath id="clip0_896_8513">
<rect width="24" height="24" fill="white"/>
</clipPath>
</defs>
</svg>
