<svg width="24" height="24" viewBox="0 0 24 24" fill="none" xmlns="http://www.w3.org/2000/svg">
<g clip-path="url(#clip0_896_7869)">
<path d="M12.0008 0C18.6281 0 24.0007 5.37262 24.0007 12C24.0007 18.6274 18.6281 24 12.0008 24C12.0008 23.4783 10.4355 12 10.4355 12L12.0008 0Z" fill="#F0F0F0"/>
<path d="M12 24C5.37262 24 0 18.6274 0 12C0 5.37262 5.37262 0 12 0" fill="#496E2D"/>
<path d="M14.5791 9.69873L13.5945 11.0555L12 10.5384L12.9862 11.894L12.0017 13.2508L13.5956 12.7319L14.5818 14.0875L14.5808 12.4112L16.1747 11.8922L14.5802 11.3751L14.5791 9.69873Z" fill="#D80027"/>
<path d="M12.9958 15.3919C11.1229 15.3919 9.6045 13.8735 9.6045 12.0006C9.6045 10.1277 11.1229 8.60929 12.9958 8.60929C13.5798 8.60929 14.1293 8.75694 14.609 9.01691C13.8564 8.28093 12.8272 7.82666 11.6915 7.82666C9.38625 7.82666 7.51758 9.69538 7.51758 12.0006C7.51758 14.3057 9.3863 16.1744 11.6915 16.1744C12.8273 16.1744 13.8564 15.7202 14.609 14.9842C14.1293 15.2443 13.5798 15.3919 12.9958 15.3919Z" fill="#D80027"/>
</g>
<defs>
<clipPath id="clip0_896_7869">
<rect width="24" height="24" fill="white"/>
</clipPath>
</defs>
</svg>
