<svg width="24" height="24" viewBox="0 0 24 24" fill="none" xmlns="http://www.w3.org/2000/svg">
<g clip-path="url(#clip0_896_8596)">
<path d="M24 12C24 18.6274 18.6274 24 12 24C5.37262 24 0 18.6274 0 12C0 12.0029 12 0.0013125 12 0C18.6274 0 24 5.37262 24 12Z" fill="#338AF3"/>
<path d="M11.9981 5.74023V9.78756L7.82422 5.74023H11.9981Z" fill="#0052B4"/>
<path d="M6.26 12.0018H9.78556L6.26 7.30615L5.73828 10.9583L6.26 12.0018Z" fill="#0052B4"/>
<path d="M11.9668 11.9999H11.999C11.999 11.9891 11.999 11.9786 11.999 11.9678C11.9883 11.9785 11.9776 11.9892 11.9668 11.9999Z" fill="#F0F0F0"/>
<path d="M12 6.26135C12 4.14986 12 2.76635 12 0.000488281H11.998C5.3715 0.00161328 0 5.37372 0 12.0005H6.26086V8.47497L9.78642 12.0005H11.968C11.9787 11.9898 11.9894 11.9791 12.0001 11.9684C12.0001 11.1599 12.0001 10.4386 12.0001 9.78696L8.47443 6.26135H12Z" fill="#F0F0F0"/>
<path d="M6.07027 1.56592C4.19344 2.63462 2.63316 4.1949 1.56445 6.07173V12.0007H4.69491V4.69647V4.69637H11.9993C11.9993 3.70904 11.9993 2.76845 11.9993 1.56592H6.07027Z" fill="#D80027"/>
<path d="M11.9989 10.5251L7.73544 6.26172H6.25977V6.26181L11.9988 12.0008H11.9989C11.9989 12.0008 11.9989 10.9833 11.9989 10.5251Z" fill="#D80027"/>
<path d="M13.5664 7.82718V12.001C13.5664 14.7966 17.2186 15.6532 17.2186 15.6532C17.2186 15.6532 20.8707 14.7966 20.8707 12.001V7.82718L17.2186 6.78369L13.5664 7.82718Z" fill="#F3F3F3"/>
<path d="M20.8707 7.82643V6.26123H13.5664V7.82643H16.6968V10.9569H13.5664V12.0003C13.5664 12.0004 13.5664 12.0004 13.5664 12.0004L16.6968 12.0005V15.4925C17.0117 15.6039 17.2186 15.6525 17.2186 15.6525C17.2186 15.6525 17.4254 15.604 17.7402 15.4925V12.0004H20.8707V12.0003V10.9569H17.7402V7.82639H20.8707V7.82643Z" fill="#D80027"/>
</g>
<defs>
<clipPath id="clip0_896_8596">
<rect width="24" height="24" fill="white"/>
</clipPath>
</defs>
</svg>
