<svg width="24" height="24" viewBox="0 0 24 24" fill="none" xmlns="http://www.w3.org/2000/svg">
<g clip-path="url(#clip0_896_8576)">
<path d="M24 12C24 18.6274 18.6274 24 12 24C5.37262 24 0 18.6274 0 12C0 12.0029 12 0.0013125 12 0C18.6274 0 24 5.37262 24 12Z" fill="#0052B4"/>
<path d="M11.9668 12.0004H11.999C11.999 11.9896 11.999 11.9791 11.999 11.9683C11.9883 11.979 11.9776 11.9897 11.9668 12.0004Z" fill="#F0F0F0"/>
<path d="M12 6.26086C12 4.14937 12 2.76586 12 0H11.998C5.3715 0.001125 0 5.37323 0 12H6.26086V8.47448L9.78642 12H11.9679C11.9786 11.9893 11.9893 11.9786 12 11.9679C12 11.1594 12 10.4381 12 9.78647L8.47443 6.26086H12Z" fill="#F0F0F0"/>
<path d="M6.07027 1.56494C4.19344 2.63364 2.63316 4.19393 1.56445 6.07075V11.9997H4.69491V4.69549V4.69539H11.9993C11.9993 3.70807 11.9993 2.76747 11.9993 1.56494H6.07027Z" fill="#D80027"/>
<path d="M11.9989 10.5242L7.73544 6.26074H6.25977V6.26084L11.9988 11.9998H11.9989C11.9989 11.9998 11.9989 10.9823 11.9989 10.5242Z" fill="#D80027"/>
<path d="M19.3055 14.0864V14.6081H15.1317V14.0864H13.5664V16.1733H14.6099V16.6951H19.8273V16.1733H20.8707V14.0864H19.3055Z" fill="#FFDA44"/>
<path d="M13.5664 6.26172V12.0009C13.5664 14.7964 17.2186 15.653 17.2186 15.653C17.2186 15.653 20.8707 14.7964 20.8707 12.0009V6.26172H13.5664Z" fill="#338AF3"/>
<path d="M17.2183 10.543C16.3054 10.543 16.3054 11.3778 15.3924 11.3778C14.4794 11.3778 14.4794 10.543 13.5664 10.543V12.0038C14.4794 12.0038 14.4794 12.8386 15.3924 12.8386C16.3054 12.8386 16.3054 12.0038 17.2183 12.0038C18.1314 12.0038 18.1314 12.8386 19.0445 12.8386C19.9577 12.8386 19.9576 12.0038 20.8708 12.0038V10.543C19.9577 10.543 19.9577 11.3778 19.0445 11.3778C18.1314 11.3778 18.1314 10.543 17.2183 10.543Z" fill="#F3F3F3"/>
<path d="M17.2183 7.61816C16.3054 7.61816 16.3054 8.45296 15.3924 8.45296C14.4794 8.45296 14.4794 7.61816 13.5664 7.61816V9.07902C14.4794 9.07902 14.4794 9.91382 15.3924 9.91382C16.3054 9.91382 16.3054 9.07902 17.2183 9.07902C18.1314 9.07902 18.1314 9.91382 19.0445 9.91382C19.9577 9.91382 19.9576 9.07902 20.8708 9.07902V7.61816C19.9577 7.61816 19.9577 8.45296 19.0445 8.45296C18.1314 8.45296 18.1314 7.61816 17.2183 7.61816Z" fill="#F3F3F3"/>
</g>
<defs>
<clipPath id="clip0_896_8576">
<rect width="24" height="24" fill="white"/>
</clipPath>
</defs>
</svg>
