<svg width="24" height="24" viewBox="0 0 24 24" fill="none" xmlns="http://www.w3.org/2000/svg">
<g clip-path="url(#clip0_896_8663)">
<path d="M12 24C18.6274 24 24 18.6274 24 12C24 5.37258 18.6274 0 12 0C5.37258 0 0 5.37258 0 12C0 18.6274 5.37258 24 12 24Z" fill="#F9F9F9"/>
<path d="M11.9997 24.0009C17.1593 24.0009 21.5578 20.7444 23.2533 16.1748H0.746094C2.44166 20.7444 6.84012 24.0009 11.9997 24.0009Z" fill="#D80027"/>
<path d="M16.6946 9.91378V8.34857H17.2163V7.30509H16.1728V7.82686H15.1294V7.30509H14.0859V8.34857H14.6076V9.91378H13.5641V6.2617H14.0859V5.21826H13.0424V5.73989H12.5206V5.21826H11.4772V5.73989H10.9554V5.21826H9.91194V6.2617H10.4337V9.91378H9.39022V8.34857H9.91194V7.30509H8.86845V7.82686H7.82502V7.30509H6.78153V8.34857H7.30325V9.91378H6.25977V14.0877H17.7381V9.91378H16.6946Z" fill="#D80027"/>
<path d="M11.999 13.5649C11.1346 13.5649 10.4338 14.2657 10.4338 15.1301C10.4338 15.8115 10.8695 16.3911 11.4773 16.606V18.7824H9.91211V20.8693H12.5208V16.606C13.1286 16.3911 13.5643 15.8116 13.5643 15.1302C13.5642 14.2658 12.8635 13.5649 11.999 13.5649ZM11.999 15.6519C11.7109 15.6519 11.4773 15.4183 11.4773 15.1302C11.4773 14.8421 11.7109 14.6085 11.999 14.6085C12.2872 14.6085 12.5207 14.8421 12.5207 15.1302C12.5207 15.4183 12.2872 15.6519 11.999 15.6519Z" fill="#FFDA44"/>
</g>
<defs>
<clipPath id="clip0_896_8663">
<rect width="24" height="24" fill="white"/>
</clipPath>
</defs>
</svg>
