<svg width="24" height="24" viewBox="0 0 24 24" fill="none" xmlns="http://www.w3.org/2000/svg">
<g clip-path="url(#clip0_896_8637)">
<path d="M12 24C18.6274 24 24 18.6274 24 12C24 5.37258 18.6274 0 12 0C5.37258 0 0 5.37258 0 12C0 18.6274 5.37258 24 12 24Z" fill="#F0F0F0"/>
<path d="M12.0013 0.000976562C7.04025 0.000976562 2.78269 3.01157 0.955078 7.30532H23.0475C21.2199 3.01157 16.9623 0.000976562 12.0013 0.000976562Z" fill="#A2001D"/>
<path d="M12.0013 24.0006C16.9623 24.0006 21.2199 20.99 23.0475 16.6963H0.955078C2.78269 20.99 7.04025 24.0006 12.0013 24.0006Z" fill="#496E2D"/>
<path d="M23.5866 8.86963H0.413391C0.144375 9.86774 0 10.9169 0 12.0001C0 13.0832 0.144375 14.1324 0.413391 15.1305H23.5867C23.8556 14.1324 24 13.0832 24 12.0001C24 10.9169 23.8556 9.86774 23.5866 8.86963Z" fill="#0052B4"/>
</g>
<defs>
<clipPath id="clip0_896_8637">
<rect width="24" height="24" fill="white"/>
</clipPath>
</defs>
</svg>
