<svg width="24" height="24" viewBox="0 0 24 24" fill="none" xmlns="http://www.w3.org/2000/svg">
<g clip-path="url(#clip0_896_8747)">
<path d="M12 24C18.6274 24 24 18.6274 24 12C24 5.37258 18.6274 0 12 0C5.37258 0 0 5.37258 0 12C0 18.6274 5.37258 24 12 24Z" fill="#F0F0F0"/>
<path d="M11.9997 -0.000976562C9.87813 -0.000976562 7.88556 0.550367 6.15625 1.51646V22.4816C7.88561 23.4477 9.87813 23.999 11.9997 23.999C18.6271 23.999 23.9997 18.6264 23.9997 11.999C23.9997 5.37165 18.6271 -0.000976562 11.9997 -0.000976562Z" fill="#6DA544"/>
<path d="M6.19178 1.49805C5.43686 1.91641 4.73195 2.41366 4.08794 2.97897C4.15305 2.92188 4.21881 2.86544 4.28509 2.80975L13.4756 12.0003L4.28505 21.1909C4.21872 21.1353 4.153 21.0788 4.08789 21.0217C4.73191 21.587 5.43686 22.0842 6.19173 22.5026L24 12.0003L6.19178 1.49805Z" fill="#F0F0F0"/>
<path d="M5.17739 2.12695C4.81144 2.38036 4.45997 2.65303 4.12505 2.94445L11.9991 11.9997L4.125 21.0549C4.45992 21.3463 4.81139 21.619 5.17734 21.8724L21.945 11.9997L5.17739 2.12695Z" fill="#FFDA44"/>
<path d="M4.28406 2.81006C4.0173 3.03421 3.75986 3.2692 3.51367 3.51534L10.9555 12.0007L3.51367 20.486C3.75986 20.7322 4.01725 20.9672 4.28406 21.1912L13.4747 12.0007L4.28406 2.81006Z" fill="black"/>
<path d="M3.51471 3.51416C-1.17157 8.20044 -1.17157 15.7985 3.51471 20.4848C5.45126 18.5482 7.31375 16.6858 12 11.9995L3.51471 3.51416Z" fill="#D80027"/>
</g>
<defs>
<clipPath id="clip0_896_8747">
<rect width="24" height="24" fill="white"/>
</clipPath>
</defs>
</svg>
