<svg width="24" height="24" viewBox="0 0 24 24" fill="none" xmlns="http://www.w3.org/2000/svg">
<g clip-path="url(#clip0_896_8776)">
<path d="M12 24C18.6274 24 24 18.6274 24 12C24 5.37258 18.6274 0 12 0C5.37258 0 0 5.37258 0 12C0 18.6274 5.37258 24 12 24Z" fill="#D80027"/>
<path d="M13.2387 9.07739C12.966 10.2117 12.4815 9.99539 12.2437 10.9846C10.8429 10.6478 9.98021 9.23925 10.317 7.83839C10.6537 6.43763 12.0624 5.57494 13.4632 5.91174C12.9876 7.89019 13.4827 8.06288 13.2387 9.07739Z" fill="#F0F0F0"/>
<path d="M9.60395 9.91724C10.5985 10.5271 10.243 10.9212 11.1103 11.4531C10.3571 12.6812 8.75092 13.0663 7.5227 12.3132C6.29453 11.56 5.90936 9.95376 6.66255 8.72559C8.3972 9.78927 8.71431 9.37176 9.60395 9.91724Z" fill="#F0F0F0"/>
<path d="M9.28044 13.6348C10.1678 12.8774 10.4326 13.3372 11.2065 12.6768C12.1419 13.7726 12.0117 15.4192 10.916 16.3546C9.82015 17.29 8.17353 17.1597 7.23828 16.064C8.78581 14.7429 8.4867 14.3122 9.28044 13.6348Z" fill="#F0F0F0"/>
<path d="M12.7145 15.0914C12.2683 14.0135 12.7875 13.9036 12.3984 12.9636C13.7296 12.4127 15.2555 13.0452 15.8065 14.3764C16.3574 15.7076 15.7248 17.2334 14.3936 17.7844C13.6156 15.9043 13.1136 16.0557 12.7145 15.0914Z" fill="#F0F0F0"/>
<path d="M15.1627 12.2738C13.9996 12.3651 14.0555 11.8373 13.0413 11.9169C12.9287 10.4807 14.0018 9.22483 15.4381 9.11209C16.8744 8.99964 18.1302 10.0727 18.2428 11.5091C16.2141 11.6681 16.2029 12.1923 15.1627 12.2738Z" fill="#F0F0F0"/>
</g>
<defs>
<clipPath id="clip0_896_8776">
<rect width="24" height="24" fill="white"/>
</clipPath>
</defs>
</svg>
