<svg width="24" height="24" viewBox="0 0 24 24" fill="none" xmlns="http://www.w3.org/2000/svg">
<g clip-path="url(#clip0_896_8765)">
<path d="M12 24C18.6274 24 24 18.6274 24 12C24 5.37258 18.6274 0 12 0C5.37258 0 0 5.37258 0 12C0 18.6274 5.37258 24 12 24Z" fill="#F0F0F0"/>
<path d="M12.0007 23.9984C16.7582 23.9984 20.869 21.2298 22.81 17.2158H1.19141C3.13241 21.2298 7.24316 23.9984 12.0007 23.9984Z" fill="#338AF3"/>
<path d="M12.0007 -0.000976562C7.24316 -0.000976562 3.13241 2.7677 1.19141 6.78165H22.8099C20.869 2.7677 16.7582 -0.000976562 12.0007 -0.000976562Z" fill="#338AF3"/>
<path d="M7.38602 7.82422L7.77452 9.01995H9.03175L8.01466 9.75889L8.4032 10.9546L7.38602 10.2156L6.36883 10.9546L6.75738 9.75889L5.74023 9.01995H6.99747L7.38602 7.82422Z" fill="#338AF3"/>
<path d="M7.38602 13.0425L7.77452 14.2383H9.03175L8.01466 14.9772L8.4032 16.1729L7.38602 15.4339L6.36883 16.1729L6.75738 14.9772L5.74023 14.2383H6.99747L7.38602 13.0425Z" fill="#338AF3"/>
<path d="M16.6165 7.82422L17.005 9.01995H18.2623L17.2451 9.75889L17.6337 10.9546L16.6165 10.2156L15.5993 10.9546L15.9878 9.75889L14.9707 9.01995H16.228L16.6165 7.82422Z" fill="#338AF3"/>
<path d="M16.6165 13.0425L17.005 14.2383H18.2623L17.2451 14.9772L17.6337 16.1729L16.6165 15.4339L15.5993 16.1729L15.9878 14.9772L14.9707 14.2383H16.228L16.6165 13.0425Z" fill="#338AF3"/>
<path d="M12.0012 10.4331L12.3898 11.6289H13.647L12.6299 12.3678L13.0184 13.5635L12.0012 12.8245L10.9841 13.5635L11.3726 12.3678L10.3555 11.6289H11.6127L12.0012 10.4331Z" fill="#338AF3"/>
</g>
<defs>
<clipPath id="clip0_896_8765">
<rect width="24" height="24" fill="white"/>
</clipPath>
</defs>
</svg>
