<svg width="24" height="24" viewBox="0 0 24 24" fill="none" xmlns="http://www.w3.org/2000/svg">
<g clip-path="url(#clip0_896_8755)">
<path d="M24 12C24 18.6274 18.6274 24 12 24C5.37262 24 0 18.6274 0 12C0 5.37262 12 0 12 0C12 0 24 5.37262 24 12Z" fill="#A2001D"/>
<path d="M0 12C0 5.37262 5.37262 0 12 0C18.6274 0 24 5.37262 24 12" fill="#0052B4"/>
<path d="M16.174 15.1305L12.0001 14.6088L7.82617 15.1305V8.86963H16.174V15.1305Z" fill="#F0F0F0"/>
<path d="M11.9991 14.608C13.1517 14.608 14.086 13.6737 14.086 12.5211C14.086 11.3685 13.1517 10.4341 11.9991 10.4341C10.8465 10.4341 9.91211 11.3685 9.91211 12.5211C9.91211 13.6737 10.8465 14.608 11.9991 14.608Z" fill="#0052B4"/>
<path d="M12.0005 13.565C12.5768 13.565 13.044 13.0978 13.044 12.5215C13.044 11.9452 12.5768 11.478 12.0005 11.478C11.4242 11.478 10.957 11.9452 10.957 12.5215C10.957 13.0978 11.4242 13.565 12.0005 13.565Z" fill="#A2001D"/>
<path d="M10.4355 9.91309H13.566L12.0008 11.4783L10.4355 9.91309Z" fill="#6DA544"/>
<path d="M12.522 10.9556H11.4785V14.086H12.522V10.9556Z" fill="#FFDA44"/>
<path d="M13.6696 13.7744H10.3304L7.82617 15.131H16.174L13.6696 13.7744Z" fill="#6DA544"/>
</g>
<defs>
<clipPath id="clip0_896_8755">
<rect width="24" height="24" fill="white"/>
</clipPath>
</defs>
</svg>
