<svg width="24" height="24" viewBox="0 0 24 24" fill="none" xmlns="http://www.w3.org/2000/svg">
<g clip-path="url(#clip0_896_8785)">
<path d="M0.746391 7.82522C0.264047 9.12525 0 10.5313 0 11.9991C0 13.467 0.264047 14.8731 0.746391 16.173L12 17.2165L23.2536 16.173C23.736 14.8731 24 13.467 24 11.9991C24 10.5313 23.736 9.12525 23.2536 7.82522L12 6.78174L0.746391 7.82522Z" fill="#F0F0F0"/>
<path d="M11.9997 -0.000976562C6.84012 -0.000976562 2.44156 3.25552 0.746094 7.82513H23.2534C21.5577 3.25552 17.1593 -0.000976562 11.9997 -0.000976562Z" fill="#D80027"/>
<path d="M11.9997 23.9994C17.1593 23.9994 21.5577 20.7429 23.2533 16.1733H0.746094C2.44156 20.7429 6.84012 23.9994 11.9997 23.9994Z" fill="#6DA544"/>
</g>
<defs>
<clipPath id="clip0_896_8785">
<rect width="24" height="24" fill="white"/>
</clipPath>
</defs>
</svg>
