<svg width="24" height="24" viewBox="0 0 24 24" fill="none" xmlns="http://www.w3.org/2000/svg">
<g clip-path="url(#clip0_896_8835)">
<path d="M12 24C18.6274 24 24 18.6274 24 12C24 5.37258 18.6274 0 12 0C5.37258 0 0 5.37258 0 12C0 18.6274 5.37258 24 12 24Z" fill="#F0F0F0"/>
<path d="M16.5193 9.39189H13.5069L12.0008 6.7832L10.4948 9.39189H7.48242L8.9887 12.0006L7.48242 14.6093H10.4948L12.0008 17.2179L13.5069 14.6093H16.5193L15.013 12.0006L16.5193 9.39189ZM13.8512 12.0006L12.9261 13.6031H11.0757L10.1505 12.0006L11.0757 10.398H12.9261L13.8512 12.0006ZM12.0008 8.79541L12.3452 9.39184H11.6566L12.0008 8.79541ZM9.22519 10.398H9.91388L9.56953 10.9945L9.22519 10.398ZM9.22519 13.6031L9.56958 13.0067L9.91392 13.6031H9.22519ZM12.0008 15.2057L11.6566 14.6093H12.3452L12.0008 15.2057ZM14.7765 13.6031H14.0878L14.4322 13.0067L14.7765 13.6031ZM14.0878 10.398H14.7765L14.4322 10.9945L14.0878 10.398Z" fill="#0052B4"/>
<path d="M19.4703 2.60889H4.53058C3.43544 3.48114 2.49625 4.54061 1.76172 5.73934H22.2392C21.5046 4.54065 20.5654 3.48114 19.4703 2.60889Z" fill="#0052B4"/>
<path d="M4.53058 21.3912H19.4702C20.5654 20.5189 21.5046 19.4595 22.2391 18.2607H1.76172C2.4963 19.4594 3.43548 20.5189 4.53058 21.3912Z" fill="#0052B4"/>
</g>
<defs>
<clipPath id="clip0_896_8835">
<rect width="24" height="24" fill="white"/>
</clipPath>
</defs>
</svg>
