<svg width="24" height="24" viewBox="0 0 24 24" fill="none" xmlns="http://www.w3.org/2000/svg">
<g clip-path="url(#clip0_896_8799)">
<path d="M12 24C18.6274 24 24 18.6274 24 12C24 5.37258 18.6274 0 12 0C5.37258 0 0 5.37258 0 12C0 18.6274 5.37258 24 12 24Z" fill="#F0F0F0"/>
<path d="M12.0007 -0.000976562C7.24316 -0.000976562 3.13241 2.7677 1.19141 6.78165H22.8099C20.869 2.7677 16.7582 -0.000976562 12.0007 -0.000976562Z" fill="#FF9811"/>
<path d="M12.0007 23.9994C16.7582 23.9994 20.869 21.2307 22.81 17.2168H1.19141C3.13241 21.2307 7.24316 23.9994 12.0007 23.9994Z" fill="#6DA544"/>
<path d="M12.0001 16.173C14.3052 16.173 16.174 14.3043 16.174 11.9991C16.174 9.69391 14.3052 7.8252 12.0001 7.8252C9.69489 7.8252 7.82617 9.69391 7.82617 11.9991C7.82617 14.3043 9.69489 16.173 12.0001 16.173Z" fill="#0052B4"/>
<path d="M11.9993 14.608C13.44 14.608 14.608 13.44 14.608 11.9993C14.608 10.5586 13.44 9.39062 11.9993 9.39062C10.5586 9.39062 9.39062 10.5586 9.39062 11.9993C9.39062 13.44 10.5586 14.608 11.9993 14.608Z" fill="#F0F0F0"/>
<path d="M12.0007 8.78076L12.8055 10.606L14.7885 10.3903L13.6102 11.9999L14.7885 13.6094L12.8055 13.3937L12.0007 15.2189L11.1959 13.3937L9.21289 13.6094L10.3911 11.9999L9.21289 10.3903L11.1959 10.606L12.0007 8.78076Z" fill="#0052B4"/>
</g>
<defs>
<clipPath id="clip0_896_8799">
<rect width="24" height="24" fill="white"/>
</clipPath>
</defs>
</svg>
