<svg width="24" height="24" viewBox="0 0 24 24" fill="none" xmlns="http://www.w3.org/2000/svg">
<g clip-path="url(#clip0_896_8811)">
<path d="M12 24C18.6274 24 24 18.6274 24 12C24 5.37258 18.6274 0 12 0C5.37258 0 0 5.37258 0 12C0 18.6274 5.37258 24 12 24Z" fill="#F0F0F0"/>
<path d="M15.8985 8.86968H14.3285C14.3415 9.04222 14.3488 9.21632 14.3488 9.39139C14.3488 10.5522 14.0587 11.6774 13.5529 12.4783C13.3968 12.7253 13.1346 13.0741 12.7836 13.3094V8.86963H11.2184V13.3094C10.8674 13.0741 10.6052 12.7253 10.4491 12.4783C9.94325 11.6774 9.65314 10.5522 9.65314 9.39139C9.65314 9.21632 9.66055 9.04218 9.67348 8.86968H8.10345C8.09338 9.04138 8.08789 9.21529 8.08789 9.39139C8.08789 12.6096 9.8067 15.1305 12.0009 15.1305C14.1951 15.1305 15.914 12.6096 15.914 9.39139C15.914 9.21529 15.9086 9.04138 15.8985 8.86968Z" fill="#D80027"/>
<path d="M4.9572 5.73816H6.52241V6.78165H8.08761V5.73816H9.65281V6.78165H11.218V5.73816H12.7832V6.78165H14.3484V5.73816H15.9136V6.78165H17.4788V5.73816H19.044V6.78165H22.8098C20.869 2.7677 16.7582 -0.000976562 12.0007 -0.000976562C7.2432 -0.000976562 3.13241 2.7677 1.19141 6.78165H4.9572V5.73816Z" fill="#6DA544"/>
<path d="M19.0442 17.2168V18.2603H17.479V17.2168H15.9138V18.2603H14.3486V17.2168H12.7834V18.2603H11.2182V17.2168H9.65295V18.2603H8.08775V17.2168H6.52241V18.2603H4.9572V17.2168H1.19141C3.13241 21.2307 7.24316 23.9994 12.0007 23.9994C16.7582 23.9994 20.869 21.2307 22.81 17.2168H19.0442Z" fill="#D80027"/>
</g>
<defs>
<clipPath id="clip0_896_8811">
<rect width="24" height="24" fill="white"/>
</clipPath>
</defs>
</svg>
