<svg width="24" height="24" viewBox="0 0 24 24" fill="none" xmlns="http://www.w3.org/2000/svg">
<g clip-path="url(#clip0_896_8847)">
<path d="M12 24C18.6274 24 24 18.6274 24 12C24 5.37258 18.6274 0 12 0C5.37258 0 0 5.37258 0 12C0 18.6274 5.37258 24 12 24Z" fill="#FFDA44"/>
<path d="M19.3049 2.48062C17.2814 0.925266 14.7486 0 11.9992 0C9.24975 0 6.71681 0.925312 4.69336 2.48062L11.9992 9.78638L19.3049 2.48062Z" fill="#6DA544"/>
<path d="M2.48058 4.69385C0.925312 6.7173 0 9.25019 0 11.9996C0 14.749 0.925312 17.2819 2.48062 19.3054L9.78642 11.9996L2.48058 4.69385Z" fill="black"/>
<path d="M4.69336 21.5186C6.71686 23.074 9.24975 23.9993 11.9992 23.9993C14.7486 23.9993 17.2815 23.0739 19.305 21.5186L11.9992 14.2129L4.69336 21.5186Z" fill="#6DA544"/>
<path d="M21.5186 19.3053C23.074 17.2819 23.9993 14.749 23.9993 11.9996C23.9993 9.25019 23.074 6.7173 21.5186 4.69385L14.2129 11.9996L21.5186 19.3053Z" fill="black"/>
</g>
<defs>
<clipPath id="clip0_896_8847">
<rect width="24" height="24" fill="white"/>
</clipPath>
</defs>
</svg>
