<svg width="24" height="24" viewBox="0 0 24 24" fill="none" xmlns="http://www.w3.org/2000/svg">
<g clip-path="url(#clip0_896_8877)">
<path d="M12 24C18.6274 24 24 18.6274 24 12C24 5.37258 18.6274 0 12 0C5.37258 0 0 5.37258 0 12C0 18.6274 5.37258 24 12 24Z" fill="#F0F0F0"/>
<path d="M12.0007 -0.000488281C7.24316 -0.000488281 3.13241 2.76818 1.19141 6.78214H22.8099C20.869 2.76818 16.7582 -0.000488281 12.0007 -0.000488281Z" fill="black"/>
<path d="M12.0007 23.9999C7.24316 23.9999 3.13241 21.2312 1.19141 17.2173H22.8099C20.869 21.2312 16.7582 23.9999 12.0007 23.9999Z" fill="#496E2D"/>
<path d="M23.4333 8.34717H0.566672C0.199078 9.49884 0 10.7258 0 11.9993C0 13.2729 0.199078 14.4998 0.566672 15.6515H23.4333C23.8009 14.4998 24 13.2729 24 11.9993C24 10.7258 23.8009 9.49884 23.4333 8.34717Z" fill="#A2001D"/>
<path d="M15.7369 5.54508L14.3158 4.88916L12.0003 10.1322L9.68478 4.88916L8.26367 5.54508L11.1384 11.9997L8.26367 18.4544L9.68478 19.1103L12.0003 13.8673L14.3158 19.1103L15.7369 18.4544L12.8622 11.9997L15.7369 5.54508Z" fill="#F0F0F0"/>
<path d="M12.9656 6.16297C12.4154 5.56217 12.0004 5.2168 12.0004 5.2168C12.0004 5.2168 11.5853 5.56212 11.0352 6.16297V17.8358C11.5853 18.4367 12.0004 18.782 12.0004 18.782C12.0004 18.782 12.4154 18.4367 12.9656 17.8358V6.16297Z" fill="#F0F0F0"/>
<path d="M9.39258 8.40238V15.5983C9.97392 16.6283 10.6854 17.4726 11.2187 18.0324V5.96826C10.6854 6.528 9.97387 7.37235 9.39258 8.40238Z" fill="#A2001D"/>
<path d="M14.6093 8.40287C14.0279 7.3728 13.3165 6.52848 12.7832 5.96875V18.0329C13.3164 17.4731 14.0279 16.6288 14.6093 15.5987V8.40287Z" fill="#A2001D"/>
<path d="M14.6094 8.40088V15.5968C15.1979 14.5538 15.6529 13.3206 15.6529 11.9989C15.6529 10.6771 15.1979 9.44385 14.6094 8.40088Z" fill="black"/>
<path d="M9.39114 8.40088V15.5968C8.80263 14.5538 8.34766 13.3206 8.34766 11.9989C8.34766 10.6771 8.80263 9.44385 9.39114 8.40088Z" fill="black"/>
</g>
<defs>
<clipPath id="clip0_896_8877">
<rect width="24" height="24" fill="white"/>
</clipPath>
</defs>
</svg>
