<svg width="24" height="24" viewBox="0 0 24 24" fill="none" xmlns="http://www.w3.org/2000/svg">
<g clip-path="url(#clip0_896_8909)">
<path d="M12 24C18.6274 24 24 18.6274 24 12C24 5.37258 18.6274 0 12 0C5.37258 0 0 5.37258 0 12C0 18.6274 5.37258 24 12 24Z" fill="#D80027"/>
<path d="M17.8681 12.0001L15.4702 13.128L16.7471 15.4505L14.1431 14.9523L13.8133 17.5827L11.9994 15.6482L10.1857 17.5827L9.85578 14.9523L7.25197 15.4504L8.52884 13.1279L6.13086 12.0001L8.52884 10.8722L7.25197 8.54968L9.85569 9.04796L10.1858 6.41748L11.9994 8.35206L13.8133 6.41748L14.1431 9.04796L16.7472 8.54968L15.4702 10.8724L17.8681 12.0001Z" fill="#FFDA44"/>
<path d="M11.9998 15.6515C14.0169 15.6515 15.652 14.0164 15.652 11.9993C15.652 9.9823 14.0169 8.34717 11.9998 8.34717C9.98279 8.34717 8.34766 9.9823 8.34766 11.9993C8.34766 14.0164 9.98279 15.6515 11.9998 15.6515Z" fill="#D80027"/>
<path d="M10.1746 12.0005C10.0867 12.0005 9.9998 12.005 9.91406 12.0135C9.9172 12.5193 10.1002 12.9823 10.4025 13.342C10.5637 12.9081 10.8045 12.5124 11.1081 12.1738C10.8181 12.0623 10.5035 12.0005 10.1746 12.0005Z" fill="#FFDA44"/>
<path d="M11.2988 13.967C11.5182 14.0454 11.7544 14.0884 12.0008 14.0884C12.2472 14.0884 12.4834 14.0454 12.7027 13.967C12.5832 13.4977 12.3363 13.0788 12.0008 12.7495C11.6653 13.0787 11.4184 13.4977 11.2988 13.967Z" fill="#FFDA44"/>
<path d="M13.8079 10.9574C13.447 10.3337 12.7731 9.91357 12.0006 9.91357C11.2281 9.91357 10.5542 10.3336 10.1934 10.9574C10.8512 10.9607 11.4681 11.1396 12.0006 11.4484C12.5332 11.1396 13.15 10.9607 13.8079 10.9574Z" fill="#FFDA44"/>
<path d="M12.8926 12.1738C13.1962 12.5124 13.4369 12.908 13.5982 13.342C13.9004 12.9823 14.0834 12.5193 14.0866 12.0135C14.0008 12.0049 13.9139 12.0005 13.826 12.0005C13.4972 12.0004 13.1826 12.0622 12.8926 12.1738Z" fill="#FFDA44"/>
</g>
<defs>
<clipPath id="clip0_896_8909">
<rect width="24" height="24" fill="white"/>
</clipPath>
</defs>
</svg>
