<svg width="24" height="24" viewBox="0 0 24 24" fill="none" xmlns="http://www.w3.org/2000/svg">
<g clip-path="url(#clip0_896_9584)">
<path d="M12 24C18.6274 24 24 18.6274 24 12C24 5.37258 18.6274 0 12 0C5.37258 0 0 5.37258 0 12C0 18.6274 5.37258 24 12 24Z" fill="#F0F0F0"/>
<path d="M16.174 11.9996C16.174 13.0431 14.3052 15.6517 12.0001 15.6517C9.69489 15.6517 7.82617 13.0431 7.82617 11.9996C7.82617 9.69436 9.69489 7.82568 12.0001 7.82568C14.3052 7.82568 16.174 9.69436 16.174 11.9996Z" fill="#D80027"/>
<path d="M16.174 11.9995C16.174 14.3047 14.3052 16.1734 12.0001 16.1734C9.69489 16.1734 7.82617 14.3047 7.82617 11.9995" fill="#0052B4"/>
<path d="M17.5345 14.5827L16.4277 15.6895L17.1656 16.4273L18.2723 15.3205L17.5345 14.5827Z" fill="black"/>
<path d="M15.6888 16.4269L14.582 17.5337L15.3199 18.2715L16.4266 17.1648L15.6888 16.4269Z" fill="black"/>
<path d="M19.7474 16.7946L18.6406 17.9014L19.3785 18.6392L20.4852 17.5325L19.7474 16.7946Z" fill="black"/>
<path d="M17.9036 18.6408L16.7969 19.7476L17.5347 20.4854L18.6415 19.3787L17.9036 18.6408Z" fill="black"/>
<path d="M18.64 15.6896L17.5332 16.7964L18.2711 17.5342L19.3778 16.4275L18.64 15.6896Z" fill="black"/>
<path d="M16.7962 17.5339L15.6895 18.6406L16.4273 19.3785L17.5341 18.2717L16.7962 17.5339Z" fill="black"/>
<path d="M15.6893 5.35821L18.6406 8.30957L19.3785 7.57172L16.4271 4.62037L15.6893 5.35821Z" fill="black"/>
<path d="M14.5827 6.466L15.6895 7.57275L16.4273 6.83494L15.3205 5.72818L14.5827 6.466Z" fill="black"/>
<path d="M16.4265 8.31024L17.5332 9.41699L18.271 8.67918L17.1643 7.57243L16.4265 8.31024Z" fill="black"/>
<path d="M16.7956 4.25213L17.9023 5.35889L18.6402 4.62104L17.5334 3.51428L16.7956 4.25213Z" fill="black"/>
<path d="M18.6413 6.09784L19.748 7.20459L20.4859 6.46674L19.3791 5.35999L18.6413 6.09784Z" fill="black"/>
<path d="M7.20331 19.7477L4.25195 16.7964L3.5141 17.5342L6.46546 20.4856L7.20331 19.7477Z" fill="black"/>
<path d="M8.30988 18.64L7.20312 17.5332L6.46531 18.271L7.57207 19.3778L8.30988 18.64Z" fill="black"/>
<path d="M6.46613 16.7957L5.35938 15.689L4.62153 16.4268L5.72828 17.5336L6.46613 16.7957Z" fill="black"/>
<path d="M9.41816 17.5339L6.4668 14.5825L5.72895 15.3204L8.68031 18.2717L9.41816 17.5339Z" fill="black"/>
<path d="M4.25177 7.20478L7.20312 4.25342L6.46528 3.51557L3.51392 6.46693L4.25177 7.20478Z" fill="black"/>
<path d="M5.35919 8.30976L8.31055 5.3584L7.5727 4.62055L4.62134 7.57191L5.35919 8.30976Z" fill="black"/>
<path d="M6.46661 9.41718L9.41797 6.46582L8.68015 5.728L5.7288 8.67936L6.46661 9.41718Z" fill="black"/>
</g>
<defs>
<clipPath id="clip0_896_9584">
<rect width="24" height="24" fill="white"/>
</clipPath>
</defs>
</svg>
