<svg width="24" height="24" viewBox="0 0 24 24" fill="none" xmlns="http://www.w3.org/2000/svg">
<g clip-path="url(#clip0_896_8279)">
<path d="M24 12C24 18.6274 18.6274 24 12 24C5.37262 24 0 18.6274 0 12C0 12.0029 12 0.0013125 12 0C18.6274 0 24 5.37262 24 12Z" fill="#0052B4"/>
<path d="M11.9688 12.0004H12.0009C12.0009 11.9896 12.0009 11.9791 12.0009 11.9683C11.9902 11.979 11.9795 11.9897 11.9688 12.0004Z" fill="#F0F0F0"/>
<path d="M12 6.26037C12 4.14889 12 2.76537 12 -0.000488281H11.998C5.37145 0.000636719 0 5.37275 0 11.9995H6.26086V8.474L9.78638 11.9995H11.9679C11.9786 11.9888 11.9893 11.9781 12 11.9674C12 11.1589 12 10.4376 12 9.78598L8.47444 6.26037H12Z" fill="#F0F0F0"/>
<path d="M17.2178 8.86925C18.3704 8.86925 19.3048 7.93489 19.3048 6.78228C19.3048 5.62968 18.3704 4.69531 17.2178 4.69531C16.0652 4.69531 15.1309 5.62968 15.1309 6.78228C15.1309 7.93489 16.0652 8.86925 17.2178 8.86925Z" fill="#6DA544"/>
<path d="M6.07027 1.56543C4.19344 2.63413 2.63311 4.19441 1.56445 6.07124V12.0002H4.69491V4.69598V4.69588H11.9993C11.9993 3.70856 11.9993 2.76796 11.9993 1.56543H6.07027Z" fill="#D80027"/>
<path d="M11.9989 10.5242L7.73539 6.26074H6.25977V6.26084L11.9988 11.9998H11.9989C11.9989 11.9998 11.9989 10.9823 11.9989 10.5242Z" fill="#D80027"/>
<path d="M20.8688 6.26074H13.5645V9.39119H20.8688V6.26074Z" fill="#D80027"/>
<path d="M13.5645 14.0869V16.1739H14.6625C15.3208 16.8191 16.222 17.2174 17.2166 17.2174C18.2113 17.2174 19.1124 16.8191 19.7708 16.1739H19.8253H20.8688V14.0869H13.5645Z" fill="#FFDA44"/>
<path d="M13.5645 8.86914V11.9996C13.5645 14.7952 17.2166 15.6518 17.2166 15.6518C17.2166 15.6518 20.8688 14.7952 20.8688 11.9996V8.86914H13.5645Z" fill="#338AF3"/>
<path d="M17.2164 10.5405C16.3034 10.5405 16.3034 11.3753 15.3904 11.3753C14.4774 11.3753 14.4774 10.5405 13.5645 10.5405V12.0014C14.4774 12.0014 14.4774 12.8362 15.3904 12.8362C16.3034 12.8362 16.3034 12.0014 17.2164 12.0014C18.1295 12.0014 18.1295 12.8362 19.0426 12.8362C19.9557 12.8362 19.9557 12.0014 20.8688 12.0014V10.5405C19.9557 10.5405 19.9557 11.3753 19.0426 11.3753C18.1295 11.3753 18.1295 10.5405 17.2164 10.5405Z" fill="#F3F3F3"/>
<path d="M17.2164 7.6167C16.3034 7.6167 16.3034 8.4515 15.3904 8.4515C14.4774 8.4515 14.4774 7.6167 13.5645 7.6167V9.07756C14.4774 9.07756 14.4774 9.91236 15.3904 9.91236C16.3034 9.91236 16.3034 9.07756 17.2164 9.07756C18.1295 9.07756 18.1295 9.91236 19.0426 9.91236C19.9557 9.91236 19.9557 9.07756 20.8688 9.07756V7.6167C19.9557 7.6167 19.9557 8.4515 19.0426 8.4515C18.1295 8.4515 18.1295 7.6167 17.2164 7.6167Z" fill="#F3F3F3"/>
</g>
<defs>
<clipPath id="clip0_896_8279">
<rect width="24" height="24" fill="white"/>
</clipPath>
</defs>
</svg>
