<svg width="24" height="24" viewBox="0 0 24 24" fill="none" xmlns="http://www.w3.org/2000/svg">
<g clip-path="url(#clip0_896_8871)">
<path d="M12 24C18.6274 24 24 18.6274 24 12C24 5.37258 18.6274 0 12 0C5.37258 0 0 5.37258 0 12C0 18.6274 5.37258 24 12 24Z" fill="#338AF3"/>
<path d="M18.782 12.1299H5.2168C5.2168 13.0664 6.03247 13.8255 6.96889 13.8255H6.91245C6.91245 14.7621 7.67159 15.5212 8.60811 15.5212C8.60811 16.4577 9.36725 17.2169 10.3038 17.2169H13.6951C14.6316 17.2169 15.3907 16.4577 15.3907 15.5212C16.3272 15.5212 17.0864 14.7621 17.0864 13.8255H17.03C17.9663 13.8255 18.782 13.0664 18.782 12.1299Z" fill="#FFDA44"/>
<path d="M16.696 9.91357C16.696 12.5069 14.5937 14.6092 12.0003 14.6092C9.40698 14.6092 7.30469 12.5069 7.30469 9.91357" fill="#338AF3"/>
<path d="M15.5873 9.91238L14.1218 10.6018L14.9022 12.0212L13.3108 11.7167L13.1092 13.3243L12.0007 12.1419L10.8922 13.3243L10.6906 11.7167L9.09919 12.0211L9.87956 10.6017L8.41406 9.91238L9.87961 9.22304L9.09919 7.80371L10.6905 8.10812L10.8923 6.50049L12.0007 7.68291L13.1092 6.50049L13.3108 8.10812L14.9023 7.80371L14.1218 9.22308L15.5873 9.91238Z" fill="#FFDA44"/>
</g>
<defs>
<clipPath id="clip0_896_8871">
<rect width="24" height="24" fill="white"/>
</clipPath>
</defs>
</svg>
