<svg width="24" height="24" viewBox="0 0 24 24" fill="none" xmlns="http://www.w3.org/2000/svg">
<g clip-path="url(#clip0_896_8932)">
<path d="M12 24C18.6274 24 24 18.6274 24 12C24 5.37258 18.6274 0 12 0C5.37258 0 0 5.37258 0 12C0 18.6274 5.37258 24 12 24Z" fill="#F0F0F0"/>
<path d="M12.0007 -0.000488281C7.24316 -0.000488281 3.13241 2.76818 1.19141 6.78214H22.8099C20.869 2.76818 16.7582 -0.000488281 12.0007 -0.000488281Z" fill="#D80027"/>
<path d="M12.0007 23.9994C16.7582 23.9994 20.869 21.2308 22.81 17.2168H1.19141C3.13241 21.2308 7.24316 23.9994 12.0007 23.9994Z" fill="#D80027"/>
<path d="M15.13 14.0863L11.9996 8.34717L8.86914 14.0863H11.217V15.6515H12.7822V14.0863H15.13Z" fill="#6DA544"/>
</g>
<defs>
<clipPath id="clip0_896_8932">
<rect width="24" height="24" fill="white"/>
</clipPath>
</defs>
</svg>
