<svg width="24" height="24" viewBox="0 0 24 24" fill="none" xmlns="http://www.w3.org/2000/svg">
<g clip-path="url(#clip0_896_9621)">
<path d="M12 24C18.6274 24 24 18.6274 24 12C24 5.37257 18.6274 0 12 0C5.37257 0 0 5.37257 0 12C0 18.6274 5.37257 24 12 24Z" fill="#FFDA44"/>
<path d="M9.39149 2.08643H5.23672C5.0526 2.21229 4.87241 2.3433 4.69583 2.47891L3.65234 11.9994L4.69583 21.52C4.87241 21.6556 5.0526 21.7866 5.23672 21.9124H9.39149V2.08643Z" fill="#FF9811"/>
<path d="M0 12.0005C0 15.8792 1.84069 19.3275 4.69567 21.5211V2.47998C1.84069 4.67364 0 8.12187 0 12.0005Z" fill="#6DA544"/>
<path d="M19.3047 7.31543V7.61594L19.3159 7.61763L19.3047 7.31543Z" fill="#FFDA44"/>
<path d="M23.044 15.1299H20.7831L19.8266 16.1734V18.2603H17.7396V17.2169H18.7831V15.1299H14.0874V16.4342H13.044V13.9484C12.7238 13.6618 12.5222 13.2455 12.5222 12.7821V5.99946C12.5222 5.13504 13.223 4.43426 14.0874 4.43426V14.0865H16.1744L16.8905 13.4897C16.7654 13.1918 16.6961 12.8647 16.6961 12.5212V10.956H15.1309V7.82562H18.2613C18.2613 7.30391 19.044 6.78214 19.044 6.78214C19.044 6.78214 19.8266 7.30386 19.8266 7.82562V8.60825V10.9561C20.407 10.963 21.3293 10.9479 22.3256 10.9561C22.0638 10.4986 21.9135 9.95572 21.9135 9.39088C21.9135 8.4702 22.311 7.64248 22.9437 7.06967C22.0317 5.04865 20.5764 3.32543 18.7639 2.08643H10.957V21.9125H18.764C20.968 20.4059 22.6437 18.1835 23.4567 15.5802L23.044 15.1299Z" fill="#A2001D"/>
</g>
<defs>
<clipPath id="clip0_896_9621">
<rect width="24" height="24" fill="white"/>
</clipPath>
</defs>
</svg>
