<svg width="24" height="24" viewBox="0 0 24 24" fill="none" xmlns="http://www.w3.org/2000/svg">
<g clip-path="url(#clip0_896_8963)">
<path d="M1.19072 6.78274C0.427875 8.36037 0 10.1302 0 12.0001C0 13.87 0.427875 15.6399 1.19072 17.2175L12 18.261L22.8093 17.2175C23.5721 15.6399 24 13.87 24 12.0001C24 10.1302 23.5721 8.36037 22.8093 6.78274L12 5.73926L1.19072 6.78274Z" fill="black"/>
<path d="M1.19141 17.2168C3.13231 21.2307 7.24273 23.9994 12.0003 23.9994C16.7577 23.9994 20.8682 21.2307 22.8091 17.2168H1.19141Z" fill="#496E2D"/>
<path d="M1.19141 6.78311H22.8091C20.8682 2.76916 16.7577 0.000488281 12.0003 0.000488281C7.24273 0.000488281 3.13231 2.76916 1.19141 6.78311Z" fill="#D80027"/>
<path d="M14.7949 9.80469L15.7795 11.1615L17.374 10.6445L16.3878 12.0001L17.3723 13.3568L15.7784 12.8378L14.7922 14.1935L14.7932 12.5172L13.1992 11.9982L14.7938 11.4811L14.7949 9.80469Z" fill="#F0F0F0"/>
<path d="M12.1071 15.3904C10.2342 15.3904 8.71583 13.8721 8.71583 11.9991C8.71583 10.1262 10.2342 8.60782 12.1071 8.60782C12.6911 8.60782 13.2406 8.75548 13.7203 9.01545C12.9677 8.27946 11.9385 7.8252 10.8028 7.8252C8.49758 7.8252 6.62891 9.69391 6.62891 11.9991C6.62891 14.3043 8.49763 16.173 10.8028 16.173C11.9386 16.173 12.9678 15.7187 13.7203 14.9827C13.2406 15.2428 12.6912 15.3904 12.1071 15.3904Z" fill="#F0F0F0"/>
</g>
<defs>
<clipPath id="clip0_896_8963">
<rect width="24" height="24" fill="white"/>
</clipPath>
</defs>
</svg>
