<svg width="24" height="24" viewBox="0 0 24 24" fill="none" xmlns="http://www.w3.org/2000/svg">
<g clip-path="url(#clip0_896_9084)">
<path d="M17.2165 1.19121C15.6389 0.428363 13.869 0.000488281 11.9991 0.000488281C10.1293 0.000488281 8.35939 0.428363 6.78177 1.19121L5.73828 12.0005L6.78177 22.8098C8.35939 23.5726 10.1293 24.0005 11.9991 24.0005C13.869 24.0005 15.6389 23.5726 17.2165 22.8098L18.26 12.0005L17.2165 1.19121Z" fill="#FFDA44"/>
<path d="M6.78262 1.19189C2.76872 3.13285 0 7.24327 0 12.0008C0 16.7582 2.76872 20.8687 6.78262 22.8096V1.19189Z" fill="#0052B4"/>
<path d="M17.2168 1.19189V22.8096C21.2307 20.8687 23.9994 16.7582 23.9994 12.0008C23.9994 7.24327 21.2307 3.13285 17.2168 1.19189Z" fill="#D80027"/>
<path d="M16.174 9.44204H13.3044C13.3044 8.72166 12.7204 8.1377 12.0001 8.1377C11.2797 8.1377 10.6957 8.72166 10.6957 9.44204H7.82617C7.82617 10.1513 8.44403 10.7262 9.1532 10.7262H9.11045C9.11045 11.4355 9.68542 12.0106 10.3947 12.0106C10.3947 12.6385 10.8458 13.1604 11.4415 13.2719L10.4294 15.5567C10.9143 15.7538 11.4443 15.8634 12.0001 15.8634C12.5558 15.8634 13.0858 15.7538 13.5707 15.5567L12.5587 13.2719C13.1544 13.1604 13.6054 12.6385 13.6054 12.0106C14.3147 12.0106 14.8897 11.4355 14.8897 10.7262H14.8469C15.5561 10.7262 16.174 10.1513 16.174 9.44204Z" fill="#FF9811"/>
<path d="M12.0003 11.2178L10.3047 12.0004V13.5656L12.0003 14.6091L13.696 13.5656V12.0004L12.0003 11.2178Z" fill="#0052B4"/>
<path d="M13.696 10.4341H10.3047V11.9993H13.696V10.4341Z" fill="#D80027"/>
</g>
<defs>
<clipPath id="clip0_896_9084">
<rect width="24" height="24" fill="white"/>
</clipPath>
</defs>
</svg>
