<svg width="24" height="24" viewBox="0 0 24 24" fill="none" xmlns="http://www.w3.org/2000/svg">
<g clip-path="url(#clip0_896_9373)">
<path d="M12 24C18.6274 24 24 18.6274 24 12C24 5.37258 18.6274 0 12 0C5.37258 0 0 5.37258 0 12C0 18.6274 5.37258 24 12 24Z" fill="#FFDA44"/>
<path d="M13.8249 23.8625C15.7766 23.5648 17.5732 22.7962 19.0963 21.6773L12 12.0005L13.8249 23.8625Z" fill="#D80027"/>
<path d="M10.1757 0.137695C8.22408 0.435445 6.42755 1.20401 4.9043 2.32287L12.0007 11.9997L10.1757 0.137695Z" fill="#D80027"/>
<path d="M4.9043 21.6773C6.42745 22.7962 8.22398 23.5647 10.1756 23.8626L12.0007 12.0005L4.9043 21.6773Z" fill="#D80027"/>
<path d="M2.32384 4.90234C1.20494 6.42559 0.436469 8.22208 0.138672 10.1738L12.0007 11.9988L2.32384 4.90234Z" fill="#D80027"/>
<path d="M0.138672 13.8254C0.436422 15.7771 1.20498 17.5736 2.32389 19.0968L12.0007 12.0005L0.138672 13.8254Z" fill="#D80027"/>
<path d="M23.862 10.1737C23.5642 8.22208 22.7957 6.42555 21.6768 4.90234L12 11.9987L23.862 10.1737Z" fill="#D80027"/>
<path d="M19.0963 2.32282C17.5731 1.20396 15.7766 0.435445 13.8249 0.137695L12 11.9997L19.0963 2.32282Z" fill="#D80027"/>
<path d="M21.6769 19.0969C22.7958 17.5737 23.5643 15.7771 23.8621 13.8255L12 12.0005L21.6769 19.0969Z" fill="#D80027"/>
<path d="M12.0001 16.1744C14.3052 16.1744 16.174 14.3057 16.174 12.0006C16.174 9.69537 14.3052 7.82666 12.0001 7.82666C9.69489 7.82666 7.82617 9.69537 7.82617 12.0006C7.82617 14.3057 9.69489 16.1744 12.0001 16.1744Z" fill="#D80027"/>
<path d="M11.9996 15.1296C13.7285 15.1296 15.13 13.728 15.13 11.9991C15.13 10.2702 13.7285 8.86865 11.9996 8.86865C10.2707 8.86865 8.86914 10.2702 8.86914 11.9991C8.86914 13.728 10.2707 15.1296 11.9996 15.1296Z" fill="#FFDA44"/>
</g>
<defs>
<clipPath id="clip0_896_9373">
<rect width="24" height="24" fill="white"/>
</clipPath>
</defs>
</svg>
