<svg width="24" height="24" viewBox="0 0 24 24" fill="none" xmlns="http://www.w3.org/2000/svg">
<g clip-path="url(#clip0_896_9146)">
<path d="M23.2536 16.1745C23.736 14.8745 24 13.4684 24 12.0006C24 10.5327 23.736 9.12663 23.2536 7.82669L12 6.7832L0.746391 7.82669C0.264047 9.12663 0 10.5327 0 12.0006C0 13.4684 0.264047 14.8745 0.746391 16.1745L12 17.218L23.2536 16.1745Z" fill="#6DA544"/>
<path d="M23.2533 7.82611C21.5578 3.2565 17.1593 0 11.9997 0C6.84013 0 2.44161 3.2565 0.746094 7.82611H23.2533Z" fill="#FFDA44"/>
<path d="M11.9997 23.999C17.1593 23.999 21.5578 20.7425 23.2533 16.1729H0.746094C2.44161 20.7425 6.84012 23.999 11.9997 23.999Z" fill="#D80027"/>
<path d="M20.2292 10.1529H13.9429L12.0003 4.17432L10.0577 10.1529H3.77148L8.85719 13.8479L6.91459 19.8265L12.0003 16.1743L17.0861 19.8265L15.1435 13.8478L20.2292 10.1529Z" fill="#F0F0F0"/>
</g>
<defs>
<clipPath id="clip0_896_9146">
<rect width="24" height="24" fill="white"/>
</clipPath>
</defs>
</svg>
