<svg width="24" height="24" viewBox="0 0 24 24" fill="none" xmlns="http://www.w3.org/2000/svg">
<g clip-path="url(#clip0_896_8986)">
<path d="M12 24C18.6274 24 24 18.6274 24 12C24 5.37258 18.6274 0 12 0C5.37258 0 0 5.37258 0 12C0 18.6274 5.37258 24 12 24Z" fill="#496E2D"/>
<path d="M14.0872 11.5001C13.7927 11.5001 13.513 11.5589 13.2533 11.6523C13.3956 11.3353 13.491 10.9825 13.491 10.6058C13.491 9.11509 12.0003 7.99707 12.0003 7.99707C12.0003 7.99707 10.5096 9.11509 10.5096 10.6058C10.5096 10.9824 10.605 11.3353 10.7473 11.6523C10.4875 11.559 10.2079 11.5001 9.91337 11.5001C8.4227 11.5001 7.30469 12.9908 7.30469 12.9908C7.30469 12.9908 8.4227 14.4815 9.91337 14.4815C10.7874 14.4815 11.5328 13.9693 12.0003 13.5452C12.4679 13.9692 13.2133 14.4815 14.0873 14.4815C15.578 14.4815 16.696 12.9908 16.696 12.9908C16.696 12.9908 15.5779 11.5001 14.0872 11.5001Z" fill="#F0F0F0"/>
<path d="M11.9997 4.69434L12.3076 5.64196H13.304L12.498 6.22771L12.8057 7.17534L11.9997 6.58959L11.1936 7.17534L11.5013 6.22771L10.6953 5.64196H11.6917L11.9997 4.69434Z" fill="#FFDA44"/>
<path d="M8.21013 6.35107L8.80253 6.88442L9.49286 6.48589L9.16867 7.21409L9.76103 7.74753L8.96828 7.66418L8.64409 8.39239L8.47825 7.61272L7.68555 7.52937L8.37583 7.13075L8.21013 6.35107Z" fill="#FFDA44"/>
<path d="M5.4375 9.1257L6.21722 9.2914L6.6158 8.60107L6.69914 9.39377L7.47877 9.55962L6.75061 9.88385L6.83395 10.6765L6.30047 10.0842L5.57231 10.4084L5.97089 9.71806L5.4375 9.1257Z" fill="#FFDA44"/>
<path d="M15.7891 6.35107L15.1968 6.88442L14.5065 6.48589L14.8306 7.21409L14.2383 7.74753L15.031 7.66418L15.3552 8.39239L15.5211 7.61272L16.3138 7.52937L15.6235 7.13075L15.7891 6.35107Z" fill="#FFDA44"/>
<path d="M18.5627 9.1257L17.783 9.2914L17.3845 8.60107L17.3011 9.39377L16.5215 9.55962L17.2496 9.88385L17.1663 10.6765L17.6998 10.0842L18.4279 10.4084L18.0294 9.71806L18.5627 9.1257Z" fill="#FFDA44"/>
<path d="M11.9987 18.6555C13.1828 18.6555 14.2742 18.2604 15.1498 17.5957H8.84766C9.72319 18.2604 10.8146 18.6555 11.9987 18.6555Z" fill="#F0F0F0"/>
<path d="M7.2168 15.5244C7.38241 15.9034 7.59241 16.2584 7.83906 16.5842H16.1602C16.4069 16.2585 16.6169 15.9034 16.7825 15.5244H7.2168Z" fill="#F0F0F0"/>
</g>
<defs>
<clipPath id="clip0_896_8986">
<rect width="24" height="24" fill="white"/>
</clipPath>
</defs>
</svg>
