<svg width="24" height="24" viewBox="0 0 24 24" fill="none" xmlns="http://www.w3.org/2000/svg">
<g clip-path="url(#clip0_896_9022)">
<path d="M12 24C18.6274 24 24 18.6274 24 12C24 5.37258 18.6274 0 12 0C5.37258 0 0 5.37258 0 12C0 18.6274 5.37258 24 12 24Z" fill="#D80027"/>
<path d="M19.826 6.26074H4.17383V17.739H19.826V6.26074Z" fill="#6DA544"/>
<path d="M13.9314 15.3914C12.0584 15.3914 10.54 13.873 10.54 12.0001C10.54 10.1272 12.0584 8.6088 13.9314 8.6088C14.5153 8.6088 15.0648 8.75645 15.5446 9.01642C14.792 8.28044 13.7628 7.82617 12.627 7.82617C10.3219 7.82617 8.45312 9.69489 8.45312 12.0001C8.45312 14.3052 10.3219 16.174 12.627 16.174C13.7628 16.174 14.792 15.7197 15.5446 14.9837C15.0648 15.2438 14.5153 15.3914 13.9314 15.3914Z" fill="#F0F0F0"/>
</g>
<defs>
<clipPath id="clip0_896_9022">
<rect width="24" height="24" fill="white"/>
</clipPath>
</defs>
</svg>
