<svg width="24" height="24" viewBox="0 0 24 24" fill="none" xmlns="http://www.w3.org/2000/svg">
<g clip-path="url(#clip0_896_9068)">
<path d="M12 24C18.6274 24 24 18.6274 24 12C24 5.37258 18.6274 0 12 0C5.37258 0 0 5.37258 0 12C0 18.6274 5.37258 24 12 24Z" fill="#F0F0F0"/>
<path d="M23.9994 11.9997C23.9994 7.24218 21.2307 3.13143 17.2168 1.19043V22.8089C21.2307 20.868 23.9994 16.7572 23.9994 11.9997Z" fill="#D80027"/>
<path d="M0 11.9997C0 16.7572 2.76867 20.868 6.78262 22.809V1.19043C2.76867 3.13143 0 7.24218 0 11.9997Z" fill="#6DA544"/>
<path d="M8.86914 11.999C8.86914 13.7279 10.2707 15.1295 11.9996 15.1295C13.7285 15.1295 15.13 13.7279 15.13 11.999V10.9556H8.86914V11.999Z" fill="#6DA544"/>
<path d="M16.1741 9.9136H13.0436C13.0436 9.33732 12.5764 8.87012 12.0001 8.87012C11.4238 8.87012 10.9566 9.33732 10.9566 9.9136H7.82617C7.82617 10.4899 8.32816 10.9571 8.90439 10.9571H8.86966C8.86966 11.5334 9.33681 12.0006 9.91314 12.0006C9.91314 12.5769 10.3803 13.044 10.9566 13.044H13.0436C13.6199 13.044 14.0871 12.5769 14.0871 12.0006C14.6634 12.0006 15.1306 11.5334 15.1306 10.9571H15.0958C15.6721 10.9571 16.1741 10.4899 16.1741 9.9136Z" fill="#FF9811"/>
</g>
<defs>
<clipPath id="clip0_896_9068">
<rect width="24" height="24" fill="white"/>
</clipPath>
</defs>
</svg>
