<svg width="24" height="24" viewBox="0 0 24 24" fill="none" xmlns="http://www.w3.org/2000/svg">
<g clip-path="url(#clip0_896_9010)">
<path d="M12 24C18.6274 24 24 18.6274 24 12C24 5.37258 18.6274 0 12 0C5.37258 0 0 5.37258 0 12C0 18.6274 5.37258 24 12 24Z" fill="#F0F0F0"/>
<path d="M11.4785 12.0006H24.0002C24.0002 10.9174 23.8559 9.86827 23.5869 8.87012H11.4785V12.0006Z" fill="#D80027"/>
<path d="M11.4785 5.73885H22.239C21.5044 4.54016 20.5652 3.48065 19.4701 2.6084H11.4785V5.73885Z" fill="#D80027"/>
<path d="M12.0011 24.0003C14.8253 24.0003 17.4211 23.0242 19.471 21.3916H4.53125C6.58114 23.0242 9.17694 24.0003 12.0011 24.0003Z" fill="#D80027"/>
<path d="M1.76195 18.2603H22.2394C22.8291 17.2981 23.2864 16.2462 23.5873 15.1299H0.414062C0.714859 16.2462 1.17222 17.2981 1.76195 18.2603Z" fill="#D80027"/>
<path d="M12 12C12 5.37262 12 4.59131 12 0C5.37262 0 0 5.37262 0 12H12Z" fill="#0052B4"/>
<path d="M7.98099 10.2709C6.34214 10.2709 5.01361 8.94229 5.01361 7.30349C5.01361 5.6647 6.34219 4.33612 7.98099 4.33612C8.49197 4.33612 8.97277 4.46535 9.39254 4.69279C8.73404 4.04887 7.83347 3.65137 6.83967 3.65137C4.82269 3.65137 3.1875 5.28651 3.1875 7.30354C3.1875 9.32057 4.82269 10.9557 6.83967 10.9557C7.83347 10.9557 8.73404 10.5582 9.39254 9.91429C8.97277 10.1416 8.49202 10.2709 7.98099 10.2709Z" fill="#FFDA44"/>
<path d="M8.81842 5.21729L9.34525 6.31894L10.535 6.04407L10.0022 7.14277L10.959 7.90153L9.76773 8.17008L9.77106 9.39122L8.81842 8.62725L7.86573 9.39122L7.86902 8.17008L6.67773 7.90153L7.63455 7.14277L7.10172 6.04407L8.29155 6.31894L8.81842 5.21729Z" fill="#FFDA44"/>
</g>
<defs>
<clipPath id="clip0_896_9010">
<rect width="24" height="24" fill="white"/>
</clipPath>
</defs>
</svg>
