<svg width="24" height="24" viewBox="0 0 24 24" fill="none" xmlns="http://www.w3.org/2000/svg">
<g clip-path="url(#clip0_896_9136)">
<path d="M12 24C18.6274 24 24 18.6274 24 12C24 5.37258 18.6274 0 12 0C5.37258 0 0 5.37258 0 12C0 18.6274 5.37258 24 12 24Z" fill="#F0F0F0"/>
<path d="M6.4847 16.6958L3.51367 20.485C5.68511 22.6568 8.68478 24.0001 11.9986 24.0001C16.9593 24.0001 21.2162 20.9894 23.0438 16.6958H6.4847Z" fill="#FFDA44"/>
<path d="M23.0624 7.34829C21.2451 3.03152 16.9761 0.000488281 11.9986 0.000488281C8.68478 0.000488281 5.68511 1.34388 3.51367 3.5156L6.51883 7.34829H23.0624Z" fill="#496E2D"/>
<path d="M2.60938 8.82568V15.13H23.5873C23.8565 14.132 24.0007 13.0827 24.0007 11.9996C24.0007 10.9007 23.8526 9.83668 23.5759 8.82568H2.60938Z" fill="black"/>
<path d="M3.51471 3.51416C-1.17157 8.20044 -1.17157 15.7985 3.51471 20.4848C5.45126 18.5482 7.31374 16.6858 12 11.9995L3.51471 3.51416Z" fill="#A2001D"/>
<path d="M4.85792 8.86963L5.63487 11.261H8.14953L6.11525 12.7391L6.89216 15.1305L4.85792 13.6525L2.82359 15.1305L3.60069 12.7391L1.56641 11.261H4.08087L4.85792 8.86963Z" fill="#FFDA44"/>
<path d="M7.13198 11.999H2.58398V14.086H7.13198V11.999Z" fill="#F0F0F0"/>
<path d="M7.99155 9.60754L7.25369 8.86963L4.85612 11.2672L2.45856 8.86963L1.7207 9.60754L4.12038 12.0029L1.7207 14.4027L2.45856 15.1305L4.85612 12.7373L7.25369 15.1305L7.99155 14.4027L5.59188 12.0029L7.99155 9.60754Z" fill="black"/>
</g>
<defs>
<clipPath id="clip0_896_9136">
<rect width="24" height="24" fill="white"/>
</clipPath>
</defs>
</svg>
