<svg width="24" height="24" viewBox="0 0 24 24" fill="none" xmlns="http://www.w3.org/2000/svg">
<g clip-path="url(#clip0_896_9261)">
<path d="M12 24C18.6274 24 24 18.6274 24 12C24 5.37258 18.6274 0 12 0C5.37258 0 0 5.37258 0 12C0 18.6274 5.37258 24 12 24Z" fill="#F0F0F0"/>
<path d="M0.414062 15.1309C1.10838 17.7071 2.63861 19.9399 4.69633 21.521V15.1309H0.414062Z" fill="#D80027"/>
<path d="M10.957 23.9548C11.301 23.9844 11.6489 24.0004 12.0005 24.0004C17.5448 24.0004 22.2101 20.2401 23.5871 15.1309H10.957V23.9548Z" fill="#D80027"/>
<path d="M23.5871 8.87004C22.2101 3.76085 17.5448 0.000488281 12.0005 0.000488281C11.6489 0.000488281 11.301 0.0165195 10.957 0.0461445V8.87004H23.5871Z" fill="#D80027"/>
<path d="M4.69633 2.48047C2.63861 4.06156 1.10838 6.29436 0.414062 8.87056H4.69633V2.48047Z" fill="#D80027"/>
<path d="M23.8984 10.4342H9.39136H9.39131V0.284668C8.28234 0.530574 7.23098 0.929152 6.26086 1.45851V10.4341V10.4342H0.101578C0.0347813 10.9466 0 11.4689 0 11.9994C0 12.5299 0.0347813 13.0523 0.101578 13.5646H6.26081H6.26086V22.5403C7.23098 23.0696 8.28234 23.4683 9.39131 23.7142V13.5648V13.5647H23.8984C23.9651 13.0523 24 12.5299 24 11.9994C24 11.4689 23.9651 10.9466 23.8984 10.4342Z" fill="#0052B4"/>
</g>
<defs>
<clipPath id="clip0_896_9261">
<rect width="24" height="24" fill="white"/>
</clipPath>
</defs>
</svg>
