<svg width="24" height="24" viewBox="0 0 24 24" fill="none" xmlns="http://www.w3.org/2000/svg">
<g clip-path="url(#clip0_896_9167)">
<path d="M12 24C18.6274 24 24 18.6274 24 12C24 5.37258 18.6274 0 12 0C5.37258 0 0 5.37258 0 12C0 18.6274 5.37258 24 12 24Z" fill="#F0F0F0"/>
<path d="M23.9292 13.304C23.9292 13.3039 23.9293 13.3038 23.9293 13.3036L10.7693 0.0620117C10.1757 0.122527 9.59475 0.226309 9.02986 0.370168C3.83897 1.69181 0 11.9996 0 11.9996C0 11.9996 16.7999 23.2419 18.7165 21.9448C19.1 21.6853 19.4677 21.4042 19.8177 21.1033L12.0185 13.304H23.9292Z" fill="#0052B4"/>
<path d="M20.8695 11.9996L9.19899 0.329102C3.92288 1.59084 0 6.33674 0 11.9996C0 18.627 5.37263 23.9996 12 23.9996C14.5139 23.9996 16.8467 23.2261 18.7748 21.9048L8.86955 11.9996H20.8695Z" fill="#D80027"/>
<path d="M11.4116 17.7176L9.94606 17.0283L10.7265 15.6089L9.13508 15.9134L8.93342 14.3057L7.82497 15.4881L6.71652 14.3057L6.51481 15.9134L4.92345 15.6089L5.70387 17.0283L4.23828 17.7176L5.70387 18.4069L4.92345 19.8263L6.51491 19.5219L6.71647 21.1295L7.82497 19.9471L8.93342 21.1295L9.13508 19.5219L10.7264 19.8263L9.94602 18.407L11.4116 17.7176Z" fill="#F0F0F0"/>
<path d="M10.4342 6.6549L9.36828 6.15357L9.93589 5.12124L8.77841 5.34268L8.63174 4.17334L7.82553 5.03335L7.01933 4.17334L6.87261 5.34268L5.71512 5.12124L6.28278 6.15357L5.2168 6.6549L7.82553 7.17671L10.4342 6.6549Z" fill="#F0F0F0"/>
<path d="M10.9562 6.65527C10.9562 8.38416 9.55466 9.78572 7.82576 9.78572C6.09687 9.78572 4.69531 8.38416 4.69531 6.65527" fill="#F0F0F0"/>
</g>
<defs>
<clipPath id="clip0_896_9167">
<rect width="24" height="24" fill="white"/>
</clipPath>
</defs>
</svg>
