<svg width="24" height="24" viewBox="0 0 24 24" fill="none" xmlns="http://www.w3.org/2000/svg">
<g clip-path="url(#clip0_896_9183)">
<path d="M24 12C24 18.6274 18.6274 24 12 24C5.37262 24 0 18.6274 0 12C0 12.0029 12 0.0013125 12 0C18.6274 0 24 5.37262 24 12Z" fill="#0052B4"/>
<path d="M11.9688 12.0009H12.0009C12.0009 11.9901 12.0009 11.9796 12.0009 11.9688C11.9902 11.9795 11.9795 11.9902 11.9688 12.0009Z" fill="#F0F0F0"/>
<path d="M12 6.26135C12 4.14986 12 2.76635 12 0.000488281H11.998C5.3715 0.00161328 0 5.37372 0 12.0005H6.26086V8.47497L9.78642 12.0005H11.9679C11.9786 11.9898 11.9894 11.9791 12 11.9684C12 11.1599 12 10.4386 12 9.78696L8.47443 6.26135H12Z" fill="#F0F0F0"/>
<path d="M6.07027 1.56494C4.19344 2.63364 2.63316 4.19393 1.56445 6.07075V11.9997H4.69491V4.69549V4.69539H11.9993C11.9993 3.70807 11.9993 2.76747 11.9993 1.56494H6.07027Z" fill="#D80027"/>
<path d="M11.9989 10.5247L7.73544 6.26123C7.73544 6.26123 6.25977 6.26132 6.25977 6.26123V6.26132L11.9988 12.0003H11.9989C11.9989 12.0003 11.9989 10.9828 11.9989 10.5247Z" fill="#D80027"/>
<path d="M20.7808 8.90479L21.0398 9.70194H21.878L21.1999 10.1946L21.4589 10.9917L20.7808 10.4991L20.1027 10.9917L20.3617 10.1946L19.6836 9.70194H20.5218L20.7808 8.90479Z" fill="#D80027"/>
<path d="M17.7845 14.6436L18.173 15.8393H19.4302L18.413 16.5783L18.8016 17.774L17.7845 17.035L16.7673 17.774L17.1559 16.5783L16.1387 15.8393H17.3959L17.7845 14.6436Z" fill="#D80027"/>
<path d="M17.8968 5.25195L18.2206 6.24847H19.2683L18.4206 6.86417L18.7445 7.86064L17.8968 7.24475L17.0492 7.86064L17.373 6.86417L16.5254 6.24847H17.573L17.8968 5.25195Z" fill="#D80027"/>
<path d="M15.0149 8.87012L15.4034 10.0659H16.6607L15.6435 10.8048L16.0321 12.0006L15.0149 11.2616L13.9977 12.0006L14.3863 10.8048L13.3691 10.0659H14.6264L15.0149 8.87012Z" fill="#D80027"/>
</g>
<defs>
<clipPath id="clip0_896_9183">
<rect width="24" height="24" fill="white"/>
</clipPath>
</defs>
</svg>
