<svg width="24" height="24" viewBox="0 0 24 24" fill="none" xmlns="http://www.w3.org/2000/svg">
<g clip-path="url(#clip0_896_9298)">
<path d="M12 24C18.6274 24 24 18.6274 24 12C24 5.37258 18.6274 0 12 0C5.37258 0 0 5.37258 0 12C0 18.6274 5.37258 24 12 24Z" fill="#F0F0F0"/>
<path d="M0 12C0 18.6274 5.37262 24 12 24C12 19.4365 12 12 12 12C12 12 4.17389 12 0 12Z" fill="#0052B4"/>
<path d="M12 0.000976562C18.6274 0.000976562 24 5.3736 24 12.001C19.4365 12.001 12 12.001 12 12.001C12 12.001 12 4.17487 12 0.000976562Z" fill="#D80027"/>
<path d="M7.14312 4.1748L7.92017 6.56627H10.4347L8.40041 8.04424L9.17741 10.4357L7.14312 8.9577L5.10884 10.4357L5.88584 8.04424L3.85156 6.56627H6.36608L7.14312 4.1748Z" fill="#0052B4"/>
<path d="M16.858 13.5645L17.635 15.9559H20.1495L18.1152 17.4339L18.8923 19.8254L16.858 18.3474L14.8237 19.8254L15.6007 17.4339L13.5664 15.9559H16.0809L16.858 13.5645Z" fill="#D80027"/>
</g>
<defs>
<clipPath id="clip0_896_9298">
<rect width="24" height="24" fill="white"/>
</clipPath>
</defs>
</svg>
