<svg width="24" height="24" viewBox="0 0 24 24" fill="none" xmlns="http://www.w3.org/2000/svg">
<g clip-path="url(#clip0_896_9305)">
<path d="M20.4853 20.4857C15.799 25.172 8.20108 25.172 3.51471 20.4857C-1.17158 15.7995 -1.17158 8.20145 3.51475 3.51512C8.20103 -1.17115 15.0611 -0.433295 19.7474 4.25303C24.4337 8.93931 25.1716 15.7995 20.4853 20.4857Z" fill="black"/>
<path d="M3.51367 3.51467C8.19996 -1.17161 15.7979 -1.17152 20.4843 3.51472C25.1705 8.201 25.1705 15.799 20.4843 20.4853" fill="#A2001D"/>
<path d="M9.1725 16.1738L9.36675 16.7717H9.99539L9.4868 17.1412L9.68109 17.7391L9.1725 17.3696L8.66391 17.7391L8.85816 17.1412L8.34961 16.7717H8.9782L9.1725 16.1738Z" fill="#F0F0F0"/>
<path d="M7.56483 10.4351L7.88869 11.4315H8.93635L8.08871 12.0473L8.41247 13.0438L7.56483 12.4279L6.71724 13.0438L7.04105 12.0473L6.19336 11.4315H7.24111L7.56483 10.4351Z" fill="#F0F0F0"/>
<path d="M7.56483 17.7388L7.8886 18.7352H8.93635L8.08861 19.351L8.41247 20.3475L7.56483 19.7316L6.71724 20.3475L7.04095 19.351L6.19336 18.7352H7.24097L7.56483 17.7388Z" fill="#F0F0F0"/>
<path d="M10.6292 13.0439L10.9531 14.0404H12.0008L11.1531 14.6562L11.4769 15.6526L10.6292 15.0367L9.78164 15.6526L10.1055 14.6562L9.25781 14.0404H10.3055L10.6292 13.0439Z" fill="#F0F0F0"/>
<path d="M4.50233 13.0439L4.82619 14.0404H5.8738L5.02621 14.6562L5.34993 15.6526L4.50233 15.0367L3.65469 15.6526L3.97855 14.6562L3.13086 14.0404H4.17856L4.50233 13.0439Z" fill="#F0F0F0"/>
<path d="M20.0889 8.88624C19.5526 8.34994 18.8557 8.03311 18.1069 7.97869L20.3484 6.23527C19.4557 5.34254 18.2592 4.93936 17.0916 5.02463C16.9518 4.52232 16.6854 4.04785 16.2903 3.65283L15.4049 5.42368C15.3468 5.31783 15.2733 5.21822 15.1836 5.12855C14.6741 4.61916 13.8483 4.61916 13.339 5.12855C12.8296 5.63794 12.8295 6.46378 13.339 6.97318C13.4286 7.06285 13.5283 7.13639 13.6341 7.19452L11.8633 8.07994C12.2584 8.4751 12.7332 8.74177 13.2358 8.88146C13.1502 10.049 13.553 11.2454 14.4458 12.1381L16.4042 9.62011C16.5515 9.47503 16.7461 9.39493 16.9531 9.39493C17.1622 9.39493 17.3587 9.4763 17.5065 9.62419C17.6543 9.77199 17.7357 9.96853 17.7357 10.1776C17.7357 10.3866 17.6543 10.5831 17.5065 10.731L18.2444 11.4689C18.5892 11.124 18.7792 10.6654 18.7792 10.1776C18.7792 9.7785 18.6519 9.3991 18.4169 9.08541C18.7593 9.17686 19.083 9.35602 19.3511 9.62419C20.1649 10.4379 20.1649 11.7619 19.3511 12.5756L20.089 13.3135C20.6803 12.7222 21.0059 11.9361 21.0059 11.0999C21.0058 10.2636 20.6801 9.47752 20.0889 8.88624Z" fill="#FFDA44"/>
</g>
<defs>
<clipPath id="clip0_896_9305">
<rect width="24" height="24" fill="white"/>
</clipPath>
</defs>
</svg>
