<svg width="24" height="24" viewBox="0 0 24 24" fill="none" xmlns="http://www.w3.org/2000/svg">
<g clip-path="url(#clip0_896_9329)">
<path d="M12 24C18.6274 24 24 18.6274 24 12C24 5.37258 18.6274 0 12 0C5.37258 0 0 5.37258 0 12C0 18.6274 5.37258 24 12 24Z" fill="#F0F0F0"/>
<path d="M12.0009 0V12L3.51562 20.4853C5.6872 22.6568 8.6872 24 12.0009 24C18.6283 24 24.0009 18.6274 24.0009 12C24.0009 5.37262 12.0009 0 12.0009 0Z" fill="#D80027"/>
<path d="M12.0009 0C8.6872 0 5.6872 1.34316 3.51562 3.51469C6.45984 6.45891 7.50501 7.50412 12.0009 12H24.0009C24.0009 5.37262 18.6283 0 12.0009 0Z" fill="#0052B4"/>
<path d="M8.2182 11.9998L6.7527 11.3104L7.53312 9.89111L5.94172 10.1956L5.74006 8.58789L4.63156 9.77027L3.52311 8.58789L3.32141 10.1956L1.73005 9.89106L2.51047 11.3104L1.04492 11.9998L2.51047 12.6891L1.73005 14.1085L3.32155 13.8041L3.52306 15.4117L4.63156 14.2293L5.74006 15.4117L5.94172 13.8041L7.53303 14.1085L6.75266 12.6892L8.2182 11.9998Z" fill="#FFDA44"/>
<path d="M3.2018 4.69531L3.68948 5.37702L4.48847 5.12394L3.99075 5.79837L4.47844 6.48008L3.68316 6.21519L3.18548 6.88958L3.19172 6.05145L2.39648 5.78652L3.19561 5.53344L3.2018 4.69531Z" fill="#FFDA44"/>
<path d="M3.2018 17.1094L3.68948 17.7911L4.48847 17.538L3.99075 18.2124L4.47844 18.8941L3.68316 18.6293L3.18548 19.3036L3.19172 18.4655L2.39648 18.2006L3.19561 17.9475L3.2018 17.1094Z" fill="#FFDA44"/>
<path d="M10.1578 10.9033L9.67013 11.585L8.87109 11.3319L9.36881 12.0063L8.88113 12.6881L9.67641 12.4232L10.1741 13.0975L10.1678 12.2595L10.9631 11.9945L10.164 11.7414L10.1578 10.9033Z" fill="#FFDA44"/>
</g>
<defs>
<clipPath id="clip0_896_9329">
<rect width="24" height="24" fill="white"/>
</clipPath>
</defs>
</svg>
