<svg width="24" height="24" viewBox="0 0 24 24" fill="none" xmlns="http://www.w3.org/2000/svg">
<g clip-path="url(#clip0_896_9279)">
<path d="M12 24C18.6274 24 24 18.6274 24 12C24 5.37258 18.6274 0 12 0C5.37258 0 0 5.37258 0 12C0 18.6274 5.37258 24 12 24Z" fill="#F0F0F0"/>
<path d="M0 12.0004C0 16.5489 2.53074 20.5061 6.26086 22.5413V1.45947C2.53074 3.49474 0 7.45188 0 12.0004Z" fill="#F0F0F0"/>
<path d="M11.9989 0.000976562C9.92 0.000976562 7.96466 0.529867 6.25977 1.46005V22.5419C7.96466 23.4721 9.92 24.001 11.9989 24.001C18.6263 24.001 23.9989 18.6284 23.9989 12.001C23.9989 5.3736 18.6263 0.000976562 11.9989 0.000976562Z" fill="#496E2D"/>
<path d="M17.1317 13.9859C15.6135 15.0829 13.4936 14.7414 12.3967 13.2233C11.2997 11.7051 11.6412 9.58521 13.1593 8.48833C13.6327 8.14633 14.1645 7.94416 14.7056 7.8739C13.6647 7.71823 12.5643 7.95279 11.6438 8.6179C9.77534 9.96799 9.35501 12.5771 10.7051 14.4456C12.0551 16.314 14.6643 16.7344 16.5328 15.3842C17.4534 14.7191 18.0216 13.7482 18.2005 12.7109C17.964 13.2024 17.6051 13.6439 17.1317 13.9859Z" fill="#F0F0F0"/>
<path d="M17.0669 7.82715L17.9221 8.74876L19.0628 8.22038L18.4505 9.31838L19.3056 10.2401L18.0721 9.99704L17.4598 11.0951L17.3097 9.84685L16.0762 9.6038L17.217 9.07543L17.0669 7.82715Z" fill="#F0F0F0"/>
</g>
<defs>
<clipPath id="clip0_896_9279">
<rect width="24" height="24" fill="white"/>
</clipPath>
</defs>
</svg>
