<svg width="24" height="24" viewBox="0 0 24 24" fill="none" xmlns="http://www.w3.org/2000/svg">
<g clip-path="url(#clip0_896_9396)">
<path d="M16.1745 0.745367C14.8744 0.26307 13.4684 -0.000976556 12.0006 -0.000976556C10.5327 -0.00102343 9.12667 0.26307 7.82669 0.745367L6.7832 11.999L7.82669 23.2526C9.12662 23.735 10.5327 23.999 12.0006 23.999C13.4684 23.999 14.8745 23.735 16.1745 23.2526L17.2179 11.999L16.1745 0.745367Z" fill="#FFDA44"/>
<path d="M23.9999 11.9997C23.9999 6.84017 20.7434 2.44156 16.1738 0.746094V23.2534C20.7434 21.5578 23.9999 17.1593 23.9999 11.9997Z" fill="#D80027"/>
<path d="M0 11.9996C0 17.1593 3.2565 21.5577 7.82602 23.2533L7.82606 0.746094C3.2565 2.44156 0 6.84003 0 11.9996Z" fill="#0052B4"/>
</g>
<defs>
<clipPath id="clip0_896_9396">
<rect width="24" height="24" fill="white"/>
</clipPath>
</defs>
</svg>
