<svg width="24" height="24" viewBox="0 0 24 24" fill="none" xmlns="http://www.w3.org/2000/svg">
<g clip-path="url(#clip0_896_9468)">
<path d="M12 24C18.6274 24 24 18.6274 24 12C24 5.37258 18.6274 0 12 0C5.37258 0 0 5.37258 0 12C0 18.6274 5.37258 24 12 24Z" fill="#6DA544"/>
<path d="M6.78125 14.3477C6.78125 15.2121 7.48203 15.9129 8.34645 15.9129H13.0421C13.0421 16.6332 13.6261 17.2172 14.3465 17.2172H15.9117C16.632 17.2172 17.216 16.6332 17.216 15.9129V14.3477H6.78125Z" fill="#F0F0F0"/>
<path d="M17.3462 6.7832V10.4354C17.3462 11.0108 16.8781 11.4789 16.3027 11.4789V13.0441C17.7412 13.0441 18.9114 11.8738 18.9114 10.4354V6.7832H17.3462Z" fill="#F0F0F0"/>
<path d="M6.12942 10.4349C6.12942 11.0103 5.66133 11.4784 5.08594 11.4784V13.0436C6.52439 13.0436 7.69462 11.8733 7.69462 10.4349V6.78271H6.12942V10.4349Z" fill="#F0F0F0"/>
<path d="M16.5652 6.7832H15V10.4354H16.5652V6.7832Z" fill="#F0F0F0"/>
<path d="M12.6505 8.87017C12.6505 9.01403 12.5334 9.13103 12.3896 9.13103C12.2458 9.13103 12.1287 9.01398 12.1287 8.87017V6.7832H10.5635V8.87017C10.5635 9.01403 10.4465 9.13103 10.3027 9.13103C10.1589 9.13103 10.0418 9.01398 10.0418 8.87017V6.7832H8.47656V8.87017C8.47656 9.87709 9.29575 10.6963 10.3027 10.6963C10.6905 10.6963 11.0501 10.5744 11.3462 10.3674C11.6422 10.5744 12.0019 10.6963 12.3896 10.6963C12.4677 10.6963 12.5445 10.6908 12.62 10.6812C12.5091 11.1382 12.0976 11.4789 11.607 11.4789V13.0441C13.0455 13.0441 14.2157 11.8738 14.2157 10.4354V8.87017V6.7832H12.6505V8.87017H12.6505Z" fill="#F0F0F0"/>
<path d="M10.8244 11.478H8.47656V13.0432H10.8244V11.478Z" fill="#F0F0F0"/>
</g>
<defs>
<clipPath id="clip0_896_9468">
<rect width="24" height="24" fill="white"/>
</clipPath>
</defs>
</svg>
