<svg width="24" height="24" viewBox="0 0 24 24" fill="none" xmlns="http://www.w3.org/2000/svg">
<g clip-path="url(#clip0_896_9561)">
<path d="M20.4854 20.4849C24.9859 15.9844 25.1636 8.79914 21.0203 4.08545L11.9997 11.9992L4.08594 21.0199C8.79963 25.1631 15.9848 24.9854 20.4854 20.4849Z" fill="#496E2D"/>
<path d="M3.51438 3.5144C8.01488 -0.986107 15.2001 -1.16381 19.9138 2.97942L12 12.0001L2.97944 19.9138C-1.16383 15.2001 -0.986083 8.01491 3.51438 3.5144Z" fill="#0052B4"/>
<path d="M19.9148 2.97998L2.98047 19.9144C3.15166 20.1092 3.32941 20.3002 3.51545 20.4862C3.70145 20.6722 3.89256 20.8499 4.08737 21.0212L21.0216 4.08679C20.8505 3.89198 20.6727 3.70092 20.4866 3.51487C20.3007 3.32896 20.1096 3.15117 19.9148 2.97998Z" fill="#FFDA44"/>
<path d="M5.05619 4.1748L5.31526 4.97201H6.15343L5.47534 5.46461L5.73433 6.26182L5.05619 5.76911L4.37805 6.26182L4.63712 5.46461L3.95898 4.97201H4.7972L5.05619 4.1748Z" fill="#F0F0F0"/>
<path d="M9.33744 4.17383L9.59652 4.97103H10.4346L9.75655 5.46364L10.0156 6.26084L9.33744 5.76814L8.6593 6.26084L8.91837 5.46364L8.24023 4.97103H9.07841L9.33744 4.17383Z" fill="#F0F0F0"/>
<path d="M5.05619 8.34814L5.31526 9.14535H6.15343L5.47534 9.638L5.73433 10.4352L5.05619 9.9425L4.37805 10.4352L4.63712 9.638L3.95898 9.14535H4.7972L5.05619 8.34814Z" fill="#F0F0F0"/>
<path d="M9.33744 8.34814L9.59652 9.14535H10.4346L9.75655 9.638L10.0156 10.4352L9.33744 9.9425L8.6593 10.4352L8.91837 9.638L8.24023 9.14535H9.07841L9.33744 8.34814Z" fill="#F0F0F0"/>
<path d="M7.19686 6.26172L7.45593 7.05892H8.29406L7.61597 7.55157L7.875 8.34877L7.19686 7.85607L6.51872 8.34877L6.77775 7.55157L6.09961 7.05892H6.93783L7.19686 6.26172Z" fill="#F0F0F0"/>
</g>
<defs>
<clipPath id="clip0_896_9561">
<rect width="24" height="24" fill="white"/>
</clipPath>
</defs>
</svg>
