<svg width="24" height="24" viewBox="0 0 24 24" fill="none" xmlns="http://www.w3.org/2000/svg">
<g clip-path="url(#clip0_896_9496)">
<path d="M12 24C18.6274 24 24 18.6274 24 12C24 5.37258 18.6274 0 12 0C5.37258 0 0 5.37258 0 12C0 18.6274 5.37258 24 12 24Z" fill="#F0F0F0"/>
<path d="M20.0996 3.14656C17.9649 1.19225 15.1214 -0.000488281 11.9992 -0.000488281C11.488 -0.000488281 10.9844 0.0317148 10.49 0.0937305L4.69483 6.78214L0.378906 15.0057C0.657719 16.0866 1.084 17.1082 1.63398 18.0486L11.9992 11.9995L20.0996 3.14656Z" fill="#FFDA44"/>
<path d="M21.9903 18.6479L5.20117 21.8879C7.13378 23.2192 9.47556 23.9993 11.9998 23.9993C16.168 23.9993 19.8392 21.8738 21.9903 18.6479Z" fill="#6DA544"/>
<path d="M20.103 3.14844L1.64258 18.0605C2.12544 18.884 2.70355 19.6449 3.362 20.3278L24.0009 11.9998C24.0009 8.49547 22.4985 5.34228 20.103 3.14844Z" fill="#D80027"/>
<path d="M0 12C0 13.0382 0.131906 14.0455 0.379734 15.0062L10.4909 0.0942383C4.57584 0.836457 0 5.88377 0 12Z" fill="#0052B4"/>
</g>
<defs>
<clipPath id="clip0_896_9496">
<rect width="24" height="24" fill="white"/>
</clipPath>
</defs>
</svg>
