<svg width="24" height="24" viewBox="0 0 24 24" fill="none" xmlns="http://www.w3.org/2000/svg">
<g clip-path="url(#clip0_896_9508)">
<path d="M12 24C18.6274 24 24 18.6274 24 12C24 5.37258 18.6274 0 12 0C5.37258 0 0 5.37258 0 12C0 18.6274 5.37258 24 12 24Z" fill="#F0F0F0"/>
<path d="M0 12C0 5.37262 5.37262 0 12 0C18.6274 0 24 5.37262 24 12" fill="#D80027"/>
<path d="M7.30353 6.26101C7.30353 4.51267 8.53226 3.05214 10.1731 2.69378C9.92089 2.63875 9.65928 2.60889 9.39045 2.60889C7.37337 2.60889 5.73828 4.24398 5.73828 6.26106C5.73828 8.27814 7.37337 9.91323 9.39045 9.91323C9.65919 9.91323 9.92084 9.88337 10.1731 9.82829C8.53226 9.46993 7.30353 8.0094 7.30353 6.26101Z" fill="#F0F0F0"/>
<path d="M11.9995 2.87012L12.2585 3.66723H13.0967L12.4186 4.15993L12.6776 4.95704L11.9995 4.46443L11.3214 4.95704L11.5804 4.15993L10.9023 3.66723H11.7405L11.9995 2.87012Z" fill="#F0F0F0"/>
<path d="M9.96639 4.43457L10.2254 5.23173H11.0635L10.3855 5.72438L10.6445 6.52149L9.96639 6.02888L9.2882 6.52149L9.54728 5.72438L8.86914 5.23173H9.70731L9.96639 4.43457Z" fill="#F0F0F0"/>
<path d="M14.0327 4.43457L14.2918 5.23173H15.1299L14.4518 5.72438L14.7108 6.52149L14.0327 6.02888L13.3546 6.52149L13.6136 5.72438L12.9355 5.23173H13.7737L14.0327 4.43457Z" fill="#F0F0F0"/>
<path d="M13.2495 6.7832L13.5085 7.58036H14.3467L13.6686 8.07302L13.9276 8.87012L13.2495 8.37752L12.5714 8.87012L12.8304 8.07302L12.1523 7.58036H12.9904L13.2495 6.7832Z" fill="#F0F0F0"/>
<path d="M10.7476 6.7832L11.0066 7.58036H11.8448L11.1667 8.07302L11.4257 8.87012L10.7476 8.37752L10.0695 8.87012L10.3285 8.07302L9.65039 7.58036H10.4886L10.7476 6.7832Z" fill="#F0F0F0"/>
</g>
<defs>
<clipPath id="clip0_896_9508">
<rect width="24" height="24" fill="white"/>
</clipPath>
</defs>
</svg>
