<svg width="24" height="24" viewBox="0 0 24 24" fill="none" xmlns="http://www.w3.org/2000/svg">
<g clip-path="url(#clip0_896_9668)">
<path d="M22.8093 17.2163C23.5721 15.6387 24 13.8688 24 11.9989C24 10.1291 23.5721 8.35911 22.8093 6.78153L12 6.25977L1.19072 6.78149C0.427875 8.35911 0 10.1291 0 11.9989C0 13.8688 0.427875 15.6387 1.19072 17.2163L12 17.7381L22.8093 17.2163Z" fill="#FFDA44"/>
<path d="M12.0007 0.000488281C7.24316 0.000488281 3.13241 2.76916 1.19141 6.78311H22.8099C20.869 2.76916 16.7582 0.000488281 12.0007 0.000488281Z" fill="black"/>
<path d="M12.0007 23.9994C7.24316 23.9994 3.13241 21.2307 1.19141 17.2168H22.8099C20.869 21.2307 16.7582 23.9994 12.0007 23.9994Z" fill="#0052B4"/>
<path d="M23.4333 8.34766H0.566672C0.199078 9.49933 0 10.7263 0 11.9998C0 13.2734 0.199078 14.5003 0.566672 15.652H23.4333C23.8009 14.5003 24 13.2734 24 11.9998C24 10.7263 23.8009 9.49933 23.4333 8.34766Z" fill="#A2001D"/>
<path d="M19.826 11.479H4.17383V12.5225H19.826V11.479Z" fill="#FFDA44"/>
<path d="M17.738 9.39111H6.25977V10.4346H17.738V9.39111Z" fill="#FFDA44"/>
<path d="M17.8133 11.9996C17.8133 11.9996 15.13 15.13 11.9996 15.13C8.86919 15.13 8.86914 11.9996 8.86914 11.9996C8.86914 11.9996 8.86914 8.86914 11.9996 8.86914C15.1301 8.86914 17.8133 11.9996 17.8133 11.9996Z" fill="#F0F0F0"/>
<path d="M11.9992 15.13C8.86877 15.13 6.18555 11.9996 6.18555 11.9996C6.18555 11.9996 8.86877 8.86914 11.9992 8.86914" fill="black"/>
<path d="M10.9575 10.957H9.91406V13.044H10.9575V10.957Z" fill="#F0F0F0"/>
<path d="M14.0865 10.957H13.043V13.044H14.0865V10.957Z" fill="black"/>
<path d="M4.17434 13.0445C4.75065 13.0445 5.21783 12.5773 5.21783 12.001C5.21783 11.4247 4.75065 10.9575 4.17434 10.9575C3.59804 10.9575 3.13086 11.4247 3.13086 12.001C3.13086 12.5773 3.59804 13.0445 4.17434 13.0445Z" fill="#0052B4"/>
<path d="M19.8267 13.044C20.403 13.044 20.8702 12.5768 20.8702 12.0005C20.8702 11.4242 20.403 10.957 19.8267 10.957C19.2504 10.957 18.7832 11.4242 18.7832 12.0005C18.7832 12.5768 19.2504 13.044 19.8267 13.044Z" fill="#0052B4"/>
</g>
<defs>
<clipPath id="clip0_896_9668">
<rect width="24" height="24" fill="white"/>
</clipPath>
</defs>
</svg>
