<svg width="24" height="24" viewBox="0 0 24 24" fill="none" xmlns="http://www.w3.org/2000/svg">
<g clip-path="url(#clip0_896_9711)">
<path d="M1.19072 6.78177C0.427875 8.35939 0 10.1293 0 11.9991C0 13.869 0.427875 15.6389 1.19072 17.2165L12 18.26L22.8093 17.2165C23.5721 15.6389 24 13.869 24 11.9991C24 10.1293 23.5721 8.35939 22.8093 6.78177L12 5.73828L1.19072 6.78177Z" fill="#F0F0F0"/>
<path d="M1.19141 17.2178C3.13236 21.2317 7.24278 24.0004 12.0003 24.0004C16.7577 24.0004 20.8682 21.2317 22.8091 17.2178H1.19141Z" fill="#6DA544"/>
<path d="M1.19141 6.78214H22.8091C20.8682 2.76823 16.7577 -0.000488281 12.0003 -0.000488281C7.24278 -0.000488281 3.13236 2.76823 1.19141 6.78214Z" fill="#D80027"/>
<path d="M9.91211 15.1317H14.086V13.3577L13.2513 13.7751L11.9991 12.5229L10.7469 13.7751L9.91211 13.3577V15.1317Z" fill="#FFDA44"/>
<path d="M7.52406 13.0439L7.71836 13.6418H8.34695L7.83836 14.0113L8.03266 14.6091L7.52406 14.2397L7.01547 14.6091L7.20977 14.0113L6.70117 13.6418H7.32976L7.52406 13.0439Z" fill="#FFDA44"/>
<path d="M8.12562 10.9575L8.31992 11.5554H8.94852L8.43992 11.9249L8.63417 12.5227L8.12562 12.1533L7.61703 12.5227L7.81133 11.9249L7.30273 11.5554H7.93133L8.12562 10.9575Z" fill="#FFDA44"/>
<path d="M9.84828 9.39258L10.0426 9.99042H10.6711L10.1626 10.3599L10.3568 10.9578L9.84828 10.5883L9.33973 10.9578L9.53398 10.3599L9.02539 9.99042H9.65403L9.84828 9.39258Z" fill="#FFDA44"/>
<path d="M16.4733 13.0439L16.279 13.6418H15.6504L16.159 14.0113L15.9647 14.6091L16.4733 14.2397L16.9818 14.6091L16.7876 14.0113L17.2962 13.6418H16.6676L16.4733 13.0439Z" fill="#FFDA44"/>
<path d="M15.8717 10.9575L15.6774 11.5554H15.0488L15.5574 11.9249L15.3631 12.5227L15.8717 12.1533L16.3803 12.5227L16.186 11.9249L16.6946 11.5554H16.066L15.8717 10.9575Z" fill="#FFDA44"/>
<path d="M14.151 9.39258L13.9567 9.99042H13.3281L13.8366 10.3599L13.6424 10.9578L14.151 10.5883L14.6595 10.9578L14.4653 10.3599L14.9738 9.99042H14.3452L14.151 9.39258Z" fill="#FFDA44"/>
<path d="M11.9987 8.60938L12.193 9.20722H12.8216L12.313 9.57673L12.5073 10.1746L11.9987 9.80511L11.4901 10.1746L11.6844 9.57673L11.1758 9.20722H11.8044L11.9987 8.60938Z" fill="#FFDA44"/>
</g>
<defs>
<clipPath id="clip0_896_9711">
<rect width="24" height="24" fill="white"/>
</clipPath>
</defs>
</svg>
