<svg width="24" height="24" viewBox="0 0 24 24" fill="none" xmlns="http://www.w3.org/2000/svg">
<g clip-path="url(#clip0_896_9782)">
<path d="M11.9995 -0.000488281C11.1035 -0.000488281 10.2308 0.0985586 9.39086 0.284746L8.86914 11.9995L9.39086 23.7142C10.2308 23.9004 11.1036 23.9995 11.9995 23.9995C18.6269 23.9995 23.9995 18.6269 23.9995 11.9995C23.9995 5.37209 18.6269 -0.000488281 11.9995 -0.000488281Z" fill="#496E2D"/>
<path d="M3.13041 3.91699C1.18584 6.04962 0 8.88602 0 11.9996C0 15.1131 1.18589 17.9495 3.13045 20.0822L3.65217 11.9996L3.13041 3.91699Z" fill="#496E2D"/>
<path d="M17.5522 9.0518C18.1425 7.40621 17.4793 5.61647 16.0558 4.7251C16.3118 4.75843 16.5682 4.81871 16.8211 4.90941C18.7197 5.5906 19.7066 7.68178 19.0254 9.58032C18.3442 11.479 16.253 12.4658 14.3544 11.7846C14.1015 11.6939 13.8653 11.5774 13.6465 11.4404C15.312 11.6573 16.9618 10.6974 17.5522 9.0518Z" fill="#F0F0F0"/>
<path d="M14.2766 4.27441L13.7636 4.93732L12.9747 4.65424L13.4465 5.34696L12.9336 6.00977L13.7382 5.77512L14.2101 6.46774L14.2355 5.62999L15.0401 5.39529L14.2513 5.1123L14.2766 4.27441Z" fill="#F0F0F0"/>
<path d="M15.6634 6.43555L15.1503 7.09841L14.3614 6.81533L14.8333 7.50805L14.3203 8.17086L15.1249 7.93611L15.5969 8.62887L15.6223 7.79108L16.4269 7.55633L15.638 7.2733L15.6634 6.43555Z" fill="#F0F0F0"/>
<path d="M11.8352 5.06055L11.3222 5.72336L10.5333 5.44037L11.0052 6.13305L10.4922 6.79591L11.2967 6.5612L11.7687 7.25388L11.7941 6.41613L12.5987 6.18142L11.8098 5.89834L11.8352 5.06055Z" fill="#F0F0F0"/>
<path d="M11.7786 7.53467L11.2656 8.19753L10.4767 7.9145L10.9486 8.60721L10.4355 9.27003L11.2402 9.03537L11.7121 9.728L11.7375 8.89025L12.5422 8.65554L11.7532 8.37246L11.7786 7.53467Z" fill="#F0F0F0"/>
<path d="M14.1321 8.38037L13.6191 9.04318L12.8302 8.76015L13.3022 9.45287L12.7891 10.1156L13.5938 9.88098L14.0657 10.5737L14.091 9.73586L14.8957 9.5012L14.1067 9.21817L14.1321 8.38037Z" fill="#F0F0F0"/>
<path d="M3.13086 3.91731V20.0825C4.76586 21.8756 6.93758 23.1706 9.39172 23.7146V0.285156C6.93753 0.829188 4.76591 2.12411 3.13086 3.91731Z" fill="#D80027"/>
<path d="M5.51888 6.31773L4.4707 5.53689V4.43265L5.51888 3.65186H7.0013L8.04947 4.43265V5.53689L7.0013 6.31773H5.51888Z" fill="#F0F0F0"/>
<path d="M6.26011 3.65186H5.51887L4.4707 4.43265V4.97251H6.26011V3.65186Z" fill="#FF9811"/>
<path d="M6.25977 6.3168H7.00095L8.04913 5.53595V4.97266H6.25977V6.3168Z" fill="#FF9811"/>
<path d="M5.51888 20.3485L4.4707 19.5676V18.4635L5.51888 17.6826H7.0013L8.04947 18.4635V19.5676L7.0013 20.3485H5.51888Z" fill="#F0F0F0"/>
<path d="M6.26011 17.6826H5.51887L4.4707 18.4635V19.0033H6.26011V17.6826Z" fill="#FF9811"/>
<path d="M6.25977 20.3495H7.00095L8.04913 19.5686V19.0054H6.25977V20.3495Z" fill="#FF9811"/>
<path d="M5.51887 13.3324L4.4707 12.5515V11.4473L5.51887 10.6665H7.00129L8.04946 11.4473V12.5515L7.00129 13.3324H5.51887Z" fill="#496E2D"/>
<path d="M8.08572 15.0511H7.62916V14.5946H6.82689L6.25961 14.0273L5.69238 14.5946H4.89011V15.0511H4.43359V15.9642H4.89011V16.4207H5.69233L6.25966 16.988L6.82689 16.4207H7.62916V15.9642H8.08572V15.0511Z" fill="#496E2D"/>
<path d="M8.08572 8.03605H7.62916V7.57949H6.82689L6.25961 7.01221L5.69238 7.57949H4.89011V8.03605H4.43359V8.94908H4.89011V9.4056H5.69233L6.25966 9.97297L6.82689 9.4056H7.62916V8.94908H8.08572V8.03605Z" fill="#496E2D"/>
<path d="M6.78176 11.479H5.73828V12.5225H6.78176V11.479Z" fill="#D80027"/>
<path d="M6.26 9.01463C6.54813 9.01463 6.78171 8.78105 6.78171 8.49291C6.78171 8.20477 6.54813 7.97119 6.26 7.97119C5.97186 7.97119 5.73828 8.20477 5.73828 8.49291C5.73828 8.78105 5.97186 9.01463 6.26 9.01463Z" fill="#D80027"/>
<path d="M6.26 16.0307C6.54813 16.0307 6.78171 15.7972 6.78171 15.509C6.78171 15.2209 6.54813 14.9873 6.26 14.9873C5.97186 14.9873 5.73828 15.2209 5.73828 15.509C5.73828 15.7972 5.97186 16.0307 6.26 16.0307Z" fill="#D80027"/>
</g>
<defs>
<clipPath id="clip0_896_9782">
<rect width="24" height="24" fill="white"/>
</clipPath>
</defs>
</svg>
