<svg width="24" height="24" viewBox="0 0 24 24" fill="none" xmlns="http://www.w3.org/2000/svg">
<g clip-path="url(#clip0_896_9776)">
<path d="M12 24C18.6274 24 24 18.6274 24 12C24 5.37258 18.6274 0 12 0C5.37258 0 0 5.37258 0 12C0 18.6274 5.37258 24 12 24Z" fill="#D80027"/>
<path d="M11.5097 9.80518L12.4943 11.162L14.0888 10.6449L13.1027 12.0006L14.0872 13.3573L12.4932 12.8383L11.5071 14.1939L11.5081 12.5176L9.91406 11.9986L11.5087 11.4816L11.5097 9.80518Z" fill="#F0F0F0"/>
<path d="M8.82198 15.3904C6.94905 15.3904 5.43067 13.8721 5.43067 11.9991C5.43067 10.1262 6.94905 8.60782 8.82198 8.60782C9.40595 8.60782 9.95542 8.75552 10.4351 9.01545C9.68256 8.27941 8.65333 7.8252 7.51764 7.8252C5.21242 7.8252 3.34375 9.69391 3.34375 11.9991C3.34375 14.3043 5.21247 16.173 7.51764 16.173C8.65342 16.173 9.68261 15.7187 10.4351 14.9827C9.95542 15.2427 9.40595 15.3904 8.82198 15.3904Z" fill="#F0F0F0"/>
</g>
<defs>
<clipPath id="clip0_896_9776">
<rect width="24" height="24" fill="white"/>
</clipPath>
</defs>
</svg>
