<svg width="24" height="24" viewBox="0 0 24 24" fill="none" xmlns="http://www.w3.org/2000/svg">
<g clip-path="url(#clip0_896_9762)">
<path d="M6.49714 1.33203C5.42286 1.88652 4.41444 2.61331 3.51387 3.51387C2.61327 4.41448 1.88647 5.42291 1.33203 6.49719L9.04798 14.951L17.5018 22.667C18.5762 22.1125 19.5846 21.3857 20.4852 20.4852C21.3858 19.5846 22.1125 18.5762 22.667 17.5019L14.951 9.04798L6.49714 1.33203Z" fill="#F0F0F0"/>
<path d="M20.4849 20.4859C20.9883 19.9825 21.4372 19.4454 21.8325 18.882L5.11755 2.16699C4.55416 2.5622 4.01702 3.01116 3.51363 3.51455C3.01023 4.01795 2.56127 4.55509 2.16602 5.11852L18.8809 21.8334C19.4443 21.4382 19.9815 20.9893 20.4849 20.4859Z" fill="black"/>
<path d="M3.51431 20.4865C7.30026 24.2725 12.9861 24.9992 17.5023 22.6683L1.33251 6.49854C-0.998347 11.0148 -0.271457 16.7006 3.51431 20.4865Z" fill="#D80027"/>
<path d="M20.486 3.51437C16.7001 -0.271537 11.0143 -0.998287 6.49805 1.33248L22.6678 17.5024C24.9987 12.9862 24.272 7.30028 20.486 3.51437Z" fill="#D80027"/>
</g>
<defs>
<clipPath id="clip0_896_9762">
<rect width="24" height="24" fill="white"/>
</clipPath>
</defs>
</svg>
