<svg width="24" height="24" viewBox="0 0 24 24" fill="none" xmlns="http://www.w3.org/2000/svg">
<g clip-path="url(#clip0_896_9849)">
<path d="M20.9434 20.0004C22.8439 17.8773 24 15.0741 24 12.0004C24 8.92672 22.8438 6.12345 20.9434 4.00039L12 3.13086L3.05662 4.00039C1.15617 6.12345 0 8.92672 0 12.0004C0 15.0741 1.15613 17.8773 3.05658 20.0004L12 20.87L20.9434 20.0004Z" fill="#FFDA44"/>
<path d="M3.05664 4.00047H20.9434C18.7462 1.54577 15.5537 0.000488281 12 0.000488281C8.44628 0.000488281 5.25386 1.54577 3.05664 4.00047Z" fill="black"/>
<path d="M0 12.0005L12 13.044L24 12.0005C24 10.5978 23.7585 9.25167 23.3162 8.00049H0.683812C0.241453 9.25167 0 10.5978 0 12.0005Z" fill="#D80027"/>
<path d="M0.683812 15.9995H23.3163C23.7585 14.7483 24 13.4022 24 11.9995H0C0 13.4022 0.241453 14.7483 0.683812 15.9995Z" fill="black"/>
<path d="M20.9435 19.9995H3.05664C5.25386 22.4543 8.44628 23.9995 12.0001 23.9995C15.5538 23.9995 18.7463 22.4543 20.9435 19.9995Z" fill="#D80027"/>
<path d="M16.0048 12.0009C16.0048 14.2126 14.2121 16.0053 12.0004 16.0053C9.78874 16.0053 7.99609 14.2126 7.99609 12.0009C7.99609 9.78922 9.78874 7.99658 12.0004 7.99658C14.2121 7.99658 16.0048 9.78922 16.0048 12.0009Z" fill="#F0F0F0"/>
<path d="M13.4669 12.2036L11.9999 11.568C11.9999 11.568 12.3431 10.4288 12.3614 10.3508C12.3748 10.2939 12.3819 10.2345 12.3819 10.1734C12.3819 9.9573 12.2943 9.76164 12.1526 9.62008L12.5215 9.25117C12.2855 9.01516 11.9594 8.86914 11.5992 8.86914C11.239 8.86914 10.9129 9.01511 10.6769 9.25117L11.0458 9.62008C10.9042 9.76169 10.8166 9.95734 10.8166 10.1734C10.8166 10.2525 10.8285 10.3286 10.8503 10.4006L10.2949 10.956H11.3044C11.3044 10.956 10.887 11.5829 10.6592 12.0977C10.4313 12.6125 10.6623 13.2409 11.1889 13.475L11.4934 13.6104L11.9999 14.0864V14.6081L11.4782 15.1299H12.5217V14.0864L12.9978 13.6103H13.9825C13.9873 13.6005 13.9922 13.5909 13.9967 13.5809C14.2307 13.0543 13.9935 12.4376 13.4669 12.2036Z" fill="black"/>
</g>
<defs>
<clipPath id="clip0_896_9849">
<rect width="24" height="24" fill="white"/>
</clipPath>
</defs>
</svg>
