<svg width="24" height="24" viewBox="0 0 24 24" fill="none" xmlns="http://www.w3.org/2000/svg">
<g clip-path="url(#clip0_896_9876)">
<path d="M0.566625 8.34794C0.199031 9.49956 -4.68667e-05 10.7264 8.27601e-09 12C-4.68667e-05 13.2736 0.199078 14.5005 0.566672 15.6521L12 16.174L23.4333 15.6522C23.8009 14.5006 24.0001 13.2736 24.0001 12.0001C24 10.7265 23.8009 9.49956 23.4333 8.34789L12 7.82617L0.566625 8.34794Z" fill="#F0F0F0"/>
<path d="M23.4332 8.34789L11.9999 7.82617L0.5665 8.34789C0.457563 8.68933 0.363766 9.03747 0.285156 9.39137H23.7144C23.6359 9.03742 23.5421 8.68923 23.4332 8.34789Z" fill="#D80027"/>
<path d="M0.285156 14.6089C0.363672 14.9628 0.457469 15.3109 0.566406 15.6523L0.567531 15.6524L11.9997 16.1741L23.433 15.6524C23.542 15.3109 23.6358 14.9628 23.7143 14.6089H0.285156Z" fill="#D80027"/>
<path d="M11.9997 24.0007C17.3536 24.0007 21.8878 20.4943 23.433 15.6528H0.566406C2.11164 20.4942 6.64595 24.0007 11.9997 24.0007Z" fill="#6DA544"/>
<path d="M11.9997 -0.000976562C6.64595 -0.000929687 2.11173 3.50546 0.566406 8.34685L23.433 8.3469C21.8879 3.50541 17.3536 -0.00102344 11.9997 -0.000976562Z" fill="#338AF3"/>
<path d="M5.48278 4.95618C5.48278 3.83226 6.27267 2.89335 7.3275 2.66301C7.1654 2.62757 6.99717 2.6084 6.82439 2.6084C5.52773 2.6084 4.47656 3.65952 4.47656 4.95623C4.47656 6.25293 5.52764 7.30406 6.82439 7.30406C6.99717 7.30406 7.16536 7.28484 7.3275 7.24945C6.27272 7.01901 5.48278 6.0801 5.48278 4.95618Z" fill="#F0F0F0"/>
<path d="M8.71433 6.02246L8.87324 6.5116H9.38755L8.97149 6.81395L9.1304 7.30309L8.71433 7.00079L8.29817 7.30309L8.45713 6.81395L8.04102 6.5116H8.55533L8.71433 6.02246Z" fill="#F0F0F0"/>
<path d="M10.3568 6.02246L10.5158 6.5116H11.0301L10.614 6.81395L10.7729 7.30309L10.3568 7.00079L9.9407 7.30309L10.0997 6.81395L9.68359 6.5116H10.1979L10.3568 6.02246Z" fill="#F0F0F0"/>
<path d="M11.9975 6.02246L12.1564 6.5116H12.6708L12.2547 6.81395L12.4136 7.30309L11.9975 7.00079L11.5814 7.30309L11.7404 6.81395L11.3242 6.5116H11.8386L11.9975 6.02246Z" fill="#F0F0F0"/>
<path d="M13.6401 6.02246L13.7991 6.5116H14.3133L13.8973 6.81395L14.0562 7.30309L13.6401 7.00079L13.224 7.30309L13.383 6.81395L12.9668 6.5116H13.4811L13.6401 6.02246Z" fill="#F0F0F0"/>
<path d="M15.2806 6.02246L15.4396 6.5116H15.9539L15.5378 6.81395L15.6968 7.30309L15.2806 7.00079L14.8645 7.30309L15.0235 6.81395L14.6074 6.5116H15.1217L15.2806 6.02246Z" fill="#F0F0F0"/>
<path d="M10.3568 4.31494L10.5158 4.80404H11.0301L10.614 5.10643L10.7729 5.59552L10.3568 5.29322L9.9407 5.59552L10.0997 5.10643L9.68359 4.80404H10.1979L10.3568 4.31494Z" fill="#F0F0F0"/>
<path d="M11.9975 4.31494L12.1564 4.80404H12.6708L12.2547 5.10643L12.4136 5.59552L11.9975 5.29322L11.5814 5.59552L11.7404 5.10643L11.3242 4.80404H11.8386L11.9975 4.31494Z" fill="#F0F0F0"/>
<path d="M13.6401 4.31494L13.7991 4.80404H14.3133L13.8973 5.10643L14.0562 5.59552L13.6401 5.29322L13.224 5.59552L13.383 5.10643L12.9668 4.80404H13.4811L13.6401 4.31494Z" fill="#F0F0F0"/>
<path d="M15.2806 4.31494L15.4396 4.80404H15.9539L15.5378 5.10643L15.6968 5.59552L15.2806 5.29322L14.8645 5.59552L15.0235 5.10643L14.6074 4.80404H15.1217L15.2806 4.31494Z" fill="#F0F0F0"/>
<path d="M11.9975 2.60791L12.1564 3.0971H12.6708L12.2547 3.39939L12.4136 3.88858L11.9975 3.58629L11.5814 3.88858L11.7404 3.39939L11.3242 3.0971H11.8386L11.9975 2.60791Z" fill="#F0F0F0"/>
<path d="M13.6401 2.60791L13.7991 3.0971H14.3133L13.8973 3.39939L14.0562 3.88858L13.6401 3.58629L13.224 3.88858L13.383 3.39939L12.9668 3.0971H13.4811L13.6401 2.60791Z" fill="#F0F0F0"/>
<path d="M15.2806 2.60791L15.4396 3.0971H15.9539L15.5378 3.39939L15.6968 3.88858L15.2806 3.58629L14.8645 3.88858L15.0235 3.39939L14.6074 3.0971H15.1217L15.2806 2.60791Z" fill="#F0F0F0"/>
</g>
<defs>
<clipPath id="clip0_896_9876">
<rect width="24" height="24" fill="white"/>
</clipPath>
</defs>
</svg>
