<svg width="24" height="24" viewBox="0 0 24 24" fill="none" xmlns="http://www.w3.org/2000/svg">
<g clip-path="url(#clip0_896_8067)">
<path d="M22.8093 17.2165C23.5722 15.6389 24 13.869 24 11.9991C24 10.1293 23.5722 8.35939 22.8093 6.78177L12 5.73828L1.19072 6.78177C0.427828 8.35939 0 10.1293 0 11.9991C0 13.869 0.427828 15.6389 1.19072 17.2165L12 18.26L22.8093 17.2165Z" fill="#0052B4"/>
<path d="M12.0007 24.0004C16.7582 24.0004 20.869 21.2317 22.81 17.2178H1.19141C3.13241 21.2317 7.24316 24.0004 12.0007 24.0004Z" fill="#D80027"/>
<path d="M20.7824 14.3562L20.1486 14.8515L20.4236 15.6072L19.7568 15.1575L19.1229 15.6527L19.3445 14.8795L18.6777 14.4297L19.4816 14.4016L19.7034 13.6284L19.9786 14.3842L20.7824 14.3562Z" fill="#F0F0F0"/>
<path d="M19.1595 11.5444L18.7334 12.2266L19.2505 12.8426L18.4699 12.6483L18.0437 13.3303L17.9875 12.5279L17.207 12.3333L17.9529 12.0319L17.8968 11.2295L18.4138 11.8458L19.1595 11.5444Z" fill="#F0F0F0"/>
<path d="M16.6724 9.4585L16.5052 10.2453L17.2018 10.6475L16.4019 10.7318L16.2346 11.5184L15.9074 10.7837L15.1074 10.8676L15.7053 10.3294L15.3781 9.59467L16.0747 9.99676L16.6724 9.4585Z" fill="#F0F0F0"/>
<path d="M13.6228 8.34814L13.7349 9.14469L14.527 9.28429L13.8041 9.63707L13.916 10.4336L13.3573 9.85494L12.6342 10.2075L13.0119 9.49724L12.4531 8.91871L13.2453 9.05835L13.6228 8.34814Z" fill="#F0F0F0"/>
<path d="M10.3767 8.34814L10.7544 9.05835L11.5464 8.91861L10.9878 9.49738L11.3653 10.2076L10.6424 9.85494L10.0835 10.4334L10.1956 9.63706L9.47266 9.28447L10.2648 9.14469L10.3767 8.34814Z" fill="#F0F0F0"/>
<path d="M7.32614 9.4585L7.92399 9.99676L8.62041 9.59467L8.29336 10.3297L8.89106 10.8678L8.09114 10.7837L7.76386 11.5184L7.59684 10.7317L6.79688 10.6477L7.49344 10.2454L7.32614 9.4585Z" fill="#F0F0F0"/>
<path d="M4.83875 11.5448L5.58467 11.8461L6.10151 11.23L6.04559 12.0325L6.79128 12.3339L6.01086 12.5284L5.95465 13.3306L5.52856 12.6487L4.74805 12.8431L5.26508 12.227L4.83875 11.5448Z" fill="#F0F0F0"/>
<path d="M3.2168 14.3561L4.0208 14.3841L4.29577 13.6284L4.51772 14.4017L5.32148 14.4297L4.65464 14.8796L4.87627 15.6527L4.24252 15.1575L3.57562 15.6072L3.85073 14.8514L3.2168 14.3561Z" fill="#F0F0F0"/>
<path d="M22.81 6.78214C20.869 2.76818 16.7582 -0.000488281 12.0007 -0.000488281C7.24316 -0.000488281 3.13241 2.76818 1.19141 6.78214H22.81Z" fill="#FFDA44"/>
</g>
<defs>
<clipPath id="clip0_896_8067">
<rect width="24" height="24" fill="white"/>
</clipPath>
</defs>
</svg>
