<svg width="24" height="24" viewBox="0 0 24 24" fill="none" xmlns="http://www.w3.org/2000/svg">
<g clip-path="url(#clip0_896_8040)">
<path d="M24 12.0004C24 11.47 23.9651 10.9476 23.8984 10.4352H10.4347C7.98306 7.98377 3.51452 3.51551 3.5147 3.51514C-1.17157 8.20141 -1.17157 15.7994 3.5147 20.4857L10.4348 13.5657H23.8984C23.9651 13.0533 24 12.5309 24 12.0004Z" fill="black"/>
<path d="M23.9958 12.2729C23.9953 12.2961 23.9948 12.3194 23.9941 12.3426C23.9947 12.3193 23.9953 12.2961 23.9958 12.2729Z" fill="#F0F0F0"/>
<path d="M23.9844 12.6006C23.9833 12.6235 23.9817 12.6464 23.9805 12.6693C23.9817 12.6464 23.9832 12.6235 23.9844 12.6006Z" fill="#F0F0F0"/>
<path d="M23.9664 12.8633C23.9641 12.897 23.9617 12.9308 23.959 12.9644C23.9617 12.9308 23.964 12.897 23.9664 12.8633Z" fill="#F0F0F0"/>
<path d="M23.9277 10.6924C23.9321 10.7326 23.9366 10.7727 23.9406 10.813C23.9366 10.7726 23.9321 10.7326 23.9277 10.6924Z" fill="#F0F0F0"/>
<path d="M23.9805 11.3301C23.9817 11.353 23.9833 11.3758 23.9844 11.3988C23.9832 11.3758 23.9817 11.3529 23.9805 11.3301Z" fill="#F0F0F0"/>
<path d="M23.9941 11.6567C23.9948 11.6799 23.9953 11.7032 23.9958 11.7264C23.9953 11.7031 23.9948 11.6799 23.9941 11.6567Z" fill="#F0F0F0"/>
<path d="M23.9609 11.0356C23.9637 11.0693 23.966 11.103 23.9684 11.1368C23.966 11.103 23.9637 11.0693 23.9609 11.0356Z" fill="#F0F0F0"/>
<path d="M23.8994 10.4342C23.9048 10.4754 23.9096 10.5167 23.9145 10.5579C23.2023 4.61031 18.1405 -0.000488281 12.001 -0.000488281C8.68724 -0.000488281 5.6872 1.34271 3.51562 3.51438L10.4355 10.4343H23.8994V10.4342Z" fill="#D80027"/>
<path d="M23.8994 13.5651H10.4355L3.51562 20.485C5.6872 22.6566 8.68724 23.9998 12.001 23.9998C18.1405 23.9998 23.2023 19.389 23.9145 13.4414C23.9096 13.4826 23.9047 13.524 23.8994 13.5651Z" fill="#6DA544"/>
<path d="M23.9406 13.188C23.9366 13.2283 23.9321 13.2684 23.9277 13.3086C23.9321 13.2684 23.9366 13.2283 23.9406 13.188Z" fill="#F0F0F0"/>
<path d="M23.9688 11.1372C23.9733 11.2014 23.9774 11.2657 23.981 11.3302C23.9774 11.2657 23.9733 11.2014 23.9688 11.1372Z" fill="black"/>
<path d="M23.9141 10.5586C23.9195 10.6031 23.9246 10.6477 23.9294 10.6924C23.9245 10.6477 23.9194 10.6032 23.9141 10.5586Z" fill="black"/>
<path d="M23.9414 10.8125C23.9487 10.887 23.9553 10.9618 23.9613 11.0368C23.9554 10.9618 23.9488 10.887 23.9414 10.8125Z" fill="black"/>
<path d="M24.0015 12C24.0015 12.0913 24.0001 12.1823 23.998 12.2731C24.0001 12.1823 24.0015 12.0913 24.0015 12Z" fill="black"/>
<path d="M23.981 12.6689C23.9774 12.7334 23.9733 12.7978 23.9688 12.862C23.9733 12.7978 23.9773 12.7334 23.981 12.6689Z" fill="black"/>
<path d="M23.9613 12.9639C23.9553 13.0388 23.9487 13.1136 23.9414 13.188C23.9488 13.1136 23.9554 13.0388 23.9613 12.9639Z" fill="black"/>
<path d="M23.9294 13.3081C23.9246 13.3528 23.9195 13.3974 23.9141 13.4419C23.9194 13.3974 23.9245 13.3528 23.9294 13.3081Z" fill="black"/>
<path d="M23.998 11.7275C24.0001 11.8184 24.0015 11.9094 24.0015 12.0006C24.0015 11.9094 24.0001 11.8184 23.998 11.7275Z" fill="black"/>
<path d="M23.9863 11.3979C23.9905 11.4839 23.9937 11.5702 23.9962 11.6566C23.9937 11.5701 23.9906 11.4839 23.9863 11.3979Z" fill="black"/>
<path d="M23.9962 12.3418C23.9937 12.4282 23.9906 12.5145 23.9863 12.6005C23.9906 12.5145 23.9938 12.4282 23.9962 12.3418Z" fill="black"/>
<path d="M23.9892 11.4732H9.9945L2.80591 4.28564C2.57355 4.53071 2.32169 4.87289 2.16592 5.1166L9.04055 11.9948L2.16016 18.8754C2.29637 19.1177 2.59314 19.4764 2.8015 19.7098L9.99464 12.5166H23.9909C23.9984 12.3436 24.0007 12.1698 24.0007 11.9949C24.0007 11.7606 23.9942 11.5879 23.9892 11.4732Z" fill="#FFDA44"/>
<path d="M2.91612 14.5574V13.5523C3.91915 13.5523 4.7351 12.7362 4.7351 11.7333C4.7351 11.0237 4.15775 10.4464 3.44815 10.4464C2.96473 10.4464 2.5714 10.8396 2.5714 11.3232C2.5714 11.6323 2.82289 11.8838 3.13208 11.8838C3.30682 11.8838 3.449 11.7416 3.449 11.5668H4.45409C4.45409 12.2959 3.86103 12.8889 3.13212 12.8889C2.26873 12.889 1.56641 12.1865 1.56641 11.3232C1.56641 10.2856 2.41062 9.44141 3.4482 9.44141C4.71204 9.44141 5.74029 10.4697 5.74029 11.7335C5.74024 13.2905 4.47335 14.5574 2.91612 14.5574Z" fill="#FFDA44"/>
</g>
<defs>
<clipPath id="clip0_896_8040">
<rect width="24" height="24" fill="white"/>
</clipPath>
</defs>
</svg>
